<?xml version="1.0" encoding="UTF-8"?>
<svg version="1.1" xmlns="http://www.w3.org/2000/svg" width="206" height="206">
<path d="M0 0 C67.98 0 135.96 0 206 0 C206 67.98 206 135.96 206 206 C138.02 206 70.04 206 0 206 C0 138.02 0 70.04 0 0 Z " fill="#FEFEFD" transform="translate(0,0)"/>
<path d="M0 0 C0.79664062 0.00257812 1.59328125 0.00515625 2.4140625 0.0078125 C3.20554687 0.00523438 3.99703125 0.00265625 4.8125 0 C7.0390625 0.1328125 7.0390625 0.1328125 10.0390625 1.1328125 C10.0390625 1.7928125 10.0390625 2.4528125 10.0390625 3.1328125 C10.6371875 3.3596875 11.2353125 3.5865625 11.8515625 3.8203125 C15.08344726 5.75944336 16.49952613 8.40776425 17.61328125 11.96875 C19.45526685 21.33076854 17.60784903 31.14205966 15.0390625 40.1328125 C21.6390625 40.1328125 28.2390625 40.1328125 35.0390625 40.1328125 C35.3690625 38.4828125 35.6990625 36.8328125 36.0390625 35.1328125 C40.9140625 36.0078125 40.9140625 36.0078125 42.0390625 37.1328125 C42.07970082 38.79898365 42.0817835 40.46669345 42.0390625 42.1328125 C43.493125 42.225625 43.493125 42.225625 44.9765625 42.3203125 C49.92131853 42.98907049 53.85022474 45.55871946 58.0390625 48.1328125 C58.0390625 48.7928125 58.0390625 49.4528125 58.0390625 50.1328125 C58.62300781 50.38546875 59.20695312 50.638125 59.80859375 50.8984375 C63.74864412 53.07892072 66.46970758 56.48162393 69.0390625 60.1328125 C69.9765625 63.6328125 69.9765625 63.6328125 70.0390625 66.1328125 C70.8125 65.6378125 70.8125 65.6378125 71.6015625 65.1328125 C74.81932762 63.81270373 77.5961153 64.00039145 81.0390625 64.1328125 C81.3690625 65.4528125 81.6990625 66.7728125 82.0390625 68.1328125 C76.2890625 70.1328125 76.2890625 70.1328125 74.0390625 70.1328125 C73.09265142 72.97204575 72.91607417 74.75956506 72.8984375 77.703125 C72.86943359 79.04890625 72.86943359 79.04890625 72.83984375 80.421875 C72.80641303 82.2888522 72.78779364 84.15616288 72.78515625 86.0234375 C72.59808257 92.93531772 70.80976327 97.39450972 67.0390625 103.1328125 C66.63969482 103.81085938 66.24032715 104.48890625 65.82885742 105.1875 C62.44642502 110.90562944 57.37238597 112.89412886 51.16973877 114.66716003 C48.9761091 115.14657076 47.00789438 115.27960015 44.76464844 115.30981445 C43.92987976 115.32264969 43.09511108 115.33548492 42.23504639 115.34870911 C41.34021545 115.35609604 40.44538452 115.36348297 39.5234375 115.37109375 C38.59364075 115.3791655 37.66384399 115.38723724 36.70587158 115.39555359 C34.73899181 115.40937017 32.77208831 115.42010315 30.80517578 115.42797852 C28.80152319 115.43949376 26.79790116 115.45993831 24.79443359 115.48950195 C21.89139059 115.53232746 18.9892578 115.54836859 16.0859375 115.55859375 C15.19920349 115.57610184 14.31246948 115.59360992 13.39886475 115.61164856 C5.06493131 115.58287568 -0.87464946 112.79222898 -6.7734375 106.8828125 C-7.50175781 106.17640625 -8.23007813 105.47 -8.98046875 104.7421875 C-14.16407717 97.91250224 -14.45844487 90.90563452 -14.6484375 82.6328125 C-14.69967773 81.11300781 -14.69967773 81.11300781 -14.75195312 79.5625 C-14.83372276 77.08604833 -14.9031 74.60991901 -14.9609375 72.1328125 C-15.52683594 71.9474292 -16.09273437 71.7620459 -16.67578125 71.57104492 C-17.40925781 71.31685791 -18.14273438 71.0626709 -18.8984375 70.80078125 C-19.62933594 70.55352295 -20.36023437 70.30626465 -21.11328125 70.05151367 C-22.9609375 69.1328125 -22.9609375 69.1328125 -23.9609375 66.4453125 C-23.9609375 65.6821875 -23.9609375 64.9190625 -23.9609375 64.1328125 C-19.08429741 63.78448106 -16.19043745 64.71595538 -11.9609375 67.1328125 C-11.9609375 66.1428125 -11.9609375 65.1528125 -11.9609375 64.1328125 C-9.14837469 64.10596938 -6.33606509 64.08605062 -3.5234375 64.0703125 C-2.72099609 64.06193359 -1.91855469 64.05355469 -1.09179688 64.04492188 C0.95201471 64.0362982 2.99590152 64.080531 5.0390625 64.1328125 C6.57014311 65.66389311 6.21850192 67.11427735 6.28515625 69.24609375 C6.31802734 70.08205078 6.35089844 70.91800781 6.38476562 71.77929688 C6.44555601 73.54480488 6.50289512 75.31043537 6.55664062 77.07617188 C6.59080078 77.91599609 6.62496094 78.75582031 6.66015625 79.62109375 C6.6852124 80.38977783 6.71026855 81.15846191 6.73608398 81.95043945 C7.07605706 84.3992866 7.74308545 86.03408849 9.0390625 88.1328125 C11.0726573 89.40085816 11.0726573 89.40085816 13.0390625 90.1328125 C13.0390625 91.4528125 13.0390625 92.7728125 13.0390625 94.1328125 C14.3590625 94.1328125 15.6790625 94.1328125 17.0390625 94.1328125 C17.3690625 95.1228125 17.6990625 96.1128125 18.0390625 97.1328125 C21.04753668 98.35801514 21.04753668 98.35801514 24.0390625 99.1328125 C23.5440625 97.8953125 23.5440625 97.8953125 23.0390625 96.6328125 C21.87123441 92.5454142 21.893174 89.36357906 22.0390625 85.1328125 C35.46763393 82.84709821 35.46763393 82.84709821 40.0390625 85.1328125 C41.45115927 90.03361895 41.45115927 90.03361895 41.0390625 93.1328125 C39.17012698 95.91001574 37.0078822 97.61178533 34.0390625 99.1328125 C30.1015625 99.5078125 30.1015625 99.5078125 27.0390625 99.1328125 C27.0390625 99.7928125 27.0390625 100.4528125 27.0390625 101.1328125 C31.9890625 100.8028125 36.9390625 100.4728125 42.0390625 100.1328125 C42.0390625 99.4728125 42.0390625 98.8128125 42.0390625 98.1328125 C43.3590625 98.1328125 44.6790625 98.1328125 46.0390625 98.1328125 C46.0390625 97.1428125 46.0390625 96.1528125 46.0390625 95.1328125 C46.6990625 95.1328125 47.3590625 95.1328125 48.0390625 95.1328125 C48.1421875 94.5759375 48.2453125 94.0190625 48.3515625 93.4453125 C49.0390625 91.1328125 49.0390625 91.1328125 50.5390625 88.6953125 C52.37132951 85.88465501 52.37132951 85.88465501 53.0390625 81.1328125 C31.2590625 80.6378125 31.2590625 80.6378125 9.0390625 80.1328125 C9.0390625 74.8528125 9.0390625 69.5728125 9.0390625 64.1328125 C8.3790625 64.1328125 7.7190625 64.1328125 7.0390625 64.1328125 C7.0390625 59.8428125 7.0390625 55.5528125 7.0390625 51.1328125 C4.3990625 50.4728125 1.7590625 49.8128125 -0.9609375 49.1328125 C-0.6309375 47.8128125 -0.3009375 46.4928125 0.0390625 45.1328125 C2.25390625 44.18359375 2.25390625 44.18359375 4.9765625 43.4453125 C7.70071919 42.488847 7.70071919 42.488847 10.0390625 41.1328125 C11.63493965 37.57277885 11.90698456 35.92883024 12.0390625 32.1328125 C12.07177246 31.4521875 12.10448242 30.7715625 12.13818359 30.0703125 C12.24149124 27.71590607 12.30515619 25.36400934 12.3515625 23.0078125 C12.36977051 22.24388184 12.38797852 21.47995117 12.40673828 20.69287109 C12.39650881 15.44287728 11.39863336 11.8270511 9.0390625 7.1328125 C4.7490625 6.8028125 0.4590625 6.4728125 -3.9609375 6.1328125 C-2.77192296 0.1877398 -2.77192296 0.1877398 0 0 Z " fill="#EEA235" transform="translate(75.9609375,19.8671875)"/>
<path d="M0 0 C5.75 -0.125 5.75 -0.125 8 1 C8 1.99 8 2.98 8 4 C10.39719432 4.67958603 10.39719432 4.67958603 13 5 C13.66 4.34 14.32 3.68 15 3 C23.90024331 2.56934307 23.90024331 2.56934307 27 4 C29.68902958 7.72690065 29.12245537 11.7035074 28.8125 16.0625 C28.78091797 16.78244141 28.74933594 17.50238281 28.71679688 18.24414062 C28.37998499 23.50133476 28.37998499 23.50133476 26.57421875 25.87109375 C26.05472656 26.24363281 25.53523438 26.61617187 25 27 C24.34 27.66 23.68 28.32 23 29 C23 29.66 23 30.32 23 31 C23.66 31 24.32 31 25 31 C24.69188262 33.45895618 24.37871012 35.91708307 24.0625 38.375 C23.97548828 39.07367188 23.88847656 39.77234375 23.79882812 40.4921875 C23.11328125 45.7734375 23.11328125 45.7734375 22 48 C21.34 48 20.68 48 20 48 C20 48.66 20 49.32 20 50 C16.45811722 51.09828769 13.1790238 51.11445011 9.484375 51.09765625 C7.60878906 51.09282227 7.60878906 51.09282227 5.6953125 51.08789062 C3.74238281 51.07532227 3.74238281 51.07532227 1.75 51.0625 C-0.22613281 51.05573242 -0.22613281 51.05573242 -2.2421875 51.04882812 C-5.49483741 51.03704316 -8.74739584 51.02059011 -12 51 C-12.33 50.34 -12.66 49.68 -13 49 C-13.99 49.495 -13.99 49.495 -15 50 C-17.55157655 50.0716735 -20.07472971 50.09308442 -22.625 50.0625 C-23.33140625 50.05798828 -24.0378125 50.05347656 -24.765625 50.04882812 C-26.51045275 50.03703875 -28.255237 50.01910324 -30 50 C-30 48.35 -30 46.7 -30 45 C-27.36 45 -24.72 45 -22 45 C-22.89335797 42.64214682 -22.89335797 42.64214682 -26.0625 41.875 C-27.031875 41.58625 -28.00125 41.2975 -29 41 C-29 38.36 -29 35.72 -29 33 C-27.515 32.505 -27.515 32.505 -26 32 C-26 31.34 -26 30.68 -26 30 C-24.25360243 29.60856606 -22.50264082 29.23745713 -20.75 28.875 C-19.77546875 28.66617188 -18.8009375 28.45734375 -17.796875 28.2421875 C-14.76557234 27.9797004 -13.51982654 28.38011151 -11 30 C-11 29.34 -11 28.68 -11 28 C-10.34 27.67 -9.68 27.34 -9 27 C-10.37285156 26.90912109 -10.37285156 26.90912109 -11.7734375 26.81640625 C-12.96195313 26.73261719 -14.15046875 26.64882812 -15.375 26.5625 C-16.55835937 26.48128906 -17.74171875 26.40007812 -18.9609375 26.31640625 C-22 26 -22 26 -24 25 C-24.625 22.9375 -24.625 22.9375 -25 21 C-25.804375 21.495 -26.60875 21.99 -27.4375 22.5 C-31.79833759 24.33614214 -35.33211179 24.77945761 -40 24 C-42.5625 22.4375 -42.5625 22.4375 -44 20 C-44.5289687 15.23928166 -43.98247694 11.36144927 -42 7 C-39.45414141 4.06247085 -37.99772766 3.99978359 -34.0625 3.625 C-31.02445213 3.71501623 -30.01376763 3.99167539 -27.3125 5.625 C-26.549375 6.07875 -25.78625 6.5325 -25 7 C-22.34754398 6.33903214 -22.34754398 6.33903214 -20 5 C-17.21398777 4.07132926 -15.38933911 3.83657783 -12.5 3.8125 C-11.7265625 3.79832031 -10.953125 3.78414062 -10.15625 3.76953125 C-8 4 -8 4 -5 6 C-4.34 4.68 -3.68 3.36 -3 2 C-2.01 2 -1.02 2 0 2 C0 1.34 0 0.68 0 0 Z " fill="#F9F7EE" transform="translate(108,140)"/>
<path d="M0 0 C0.79664062 0.00257812 1.59328125 0.00515625 2.4140625 0.0078125 C3.20554687 0.00523438 3.99703125 0.00265625 4.8125 0 C7.0390625 0.1328125 7.0390625 0.1328125 10.0390625 1.1328125 C10.0390625 1.7928125 10.0390625 2.4528125 10.0390625 3.1328125 C10.6371875 3.3596875 11.2353125 3.5865625 11.8515625 3.8203125 C15.08344726 5.75944336 16.49952613 8.40776425 17.61328125 11.96875 C19.45526685 21.33076854 17.60784903 31.14205966 15.0390625 40.1328125 C21.6390625 40.1328125 28.2390625 40.1328125 35.0390625 40.1328125 C35.3690625 38.4828125 35.6990625 36.8328125 36.0390625 35.1328125 C40.9140625 36.0078125 40.9140625 36.0078125 42.0390625 37.1328125 C42.07970082 38.79898365 42.0817835 40.46669345 42.0390625 42.1328125 C43.493125 42.225625 43.493125 42.225625 44.9765625 42.3203125 C49.92131853 42.98907049 53.85022474 45.55871946 58.0390625 48.1328125 C58.0390625 48.7928125 58.0390625 49.4528125 58.0390625 50.1328125 C58.91498047 50.50986328 58.91498047 50.50986328 59.80859375 50.89453125 C62.31965582 52.28858847 63.83118475 53.79502494 65.7265625 55.9453125 C66.62955078 56.94498047 66.62955078 56.94498047 67.55078125 57.96484375 C69.0390625 60.1328125 69.0390625 60.1328125 70.0390625 65.1328125 C50.2390625 65.1328125 30.4390625 65.1328125 10.0390625 65.1328125 C9.7090625 66.1228125 9.3790625 67.1128125 9.0390625 68.1328125 C9.0390625 66.8128125 9.0390625 65.4928125 9.0390625 64.1328125 C8.3790625 64.1328125 7.7190625 64.1328125 7.0390625 64.1328125 C7.0390625 59.8428125 7.0390625 55.5528125 7.0390625 51.1328125 C4.3990625 50.4728125 1.7590625 49.8128125 -0.9609375 49.1328125 C-0.6309375 47.8128125 -0.3009375 46.4928125 0.0390625 45.1328125 C2.25390625 44.18359375 2.25390625 44.18359375 4.9765625 43.4453125 C7.70071919 42.488847 7.70071919 42.488847 10.0390625 41.1328125 C11.63493965 37.57277885 11.90698456 35.92883024 12.0390625 32.1328125 C12.07177246 31.4521875 12.10448242 30.7715625 12.13818359 30.0703125 C12.24149124 27.71590607 12.30515619 25.36400934 12.3515625 23.0078125 C12.37887451 21.8619165 12.37887451 21.8619165 12.40673828 20.69287109 C12.39650881 15.44287728 11.39863336 11.8270511 9.0390625 7.1328125 C4.7490625 6.8028125 0.4590625 6.4728125 -3.9609375 6.1328125 C-2.77192296 0.1877398 -2.77192296 0.1877398 0 0 Z " fill="#E1AA54" transform="translate(75.9609375,19.8671875)"/>
<path d="M0 0 C5.98185484 0.10700993 5.98185484 0.10700993 8.1875 1.125 C10.87652958 4.85190065 10.30995537 8.8285074 10 13.1875 C9.96841797 13.90744141 9.93683594 14.62738281 9.90429688 15.36914062 C9.56748499 20.62633476 9.56748499 20.62633476 7.76171875 22.99609375 C7.24222656 23.36863281 6.72273438 23.74117187 6.1875 24.125 C5.5275 24.785 4.8675 25.445 4.1875 26.125 C4.1875 26.785 4.1875 27.445 4.1875 28.125 C4.8475 28.125 5.5075 28.125 6.1875 28.125 C5.87938262 30.58395618 5.56621012 33.04208307 5.25 35.5 C5.16298828 36.19867188 5.07597656 36.89734375 4.98632812 37.6171875 C4.30078125 42.8984375 4.30078125 42.8984375 3.1875 45.125 C2.5275 45.125 1.8675 45.125 1.1875 45.125 C1.1875 45.785 1.1875 46.445 1.1875 47.125 C-2.15636398 48.13585428 -5.1873118 48.24043463 -8.671875 48.22265625 C-9.78691406 48.21943359 -10.90195313 48.21621094 -12.05078125 48.21289062 C-13.20964844 48.20451172 -14.36851563 48.19613281 -15.5625 48.1875 C-16.73683594 48.18298828 -17.91117188 48.17847656 -19.12109375 48.17382812 C-22.01828072 48.16205094 -24.91536454 48.14560326 -27.8125 48.125 C-27.8125 47.795 -27.8125 47.465 -27.8125 47.125 C-23.3575 46.63 -23.3575 46.63 -18.8125 46.125 C-18.8125 44.805 -18.8125 43.485 -18.8125 42.125 C-19.8025 42.125 -20.7925 42.125 -21.8125 42.125 C-21.8125 39.155 -21.8125 36.185 -21.8125 33.125 C-20.1625 33.125 -18.5125 33.125 -16.8125 33.125 C-17.76183899 29.77066891 -18.70998835 26.43253495 -19.8125 23.125 C-14.1875 21.125 -14.1875 21.125 -10.8125 21.125 C-10.8125 19.475 -10.8125 17.825 -10.8125 16.125 C-12.1325 16.125 -13.4525 16.125 -14.8125 16.125 C-14.4825 13.485 -14.1525 10.845 -13.8125 8.125 C-12.1625 7.795 -10.5125 7.465 -8.8125 7.125 C-8.8125 5.475 -8.8125 3.825 -8.8125 2.125 C-8.173125 1.980625 -7.53375 1.83625 -6.875 1.6875 C-0.7814441 0.02562112 -0.7814441 0.02562112 0 0 Z " fill="#F8EEE1" transform="translate(126.8125,142.875)"/>
<path d="M0 0 C0.99 0.33 1.98 0.66 3 1 C2.67 1.99 2.34 2.98 2 4 C3.299375 4.144375 4.59875 4.28875 5.9375 4.4375 C9.875 4.875 9.875 4.875 11 6 C10.90982004 8.19050021 10.75333792 10.378466 10.5625 12.5625 C10.46066406 13.76003906 10.35882813 14.95757812 10.25390625 16.19140625 C10.17011719 17.11824219 10.08632812 18.04507813 10 19 C10.66 19 11.32 19 12 19 C12 24.28 12 29.56 12 35 C13.19077148 34.99476318 14.38154297 34.98952637 15.60839844 34.98413086 C20.0289637 34.96602212 24.44952569 34.95454647 28.87011719 34.94506836 C30.78288321 34.94004159 32.6956454 34.93321923 34.60839844 34.92456055 C37.3587336 34.91242252 40.10901793 34.9067551 42.859375 34.90234375 C43.71368103 34.89718246 44.56798706 34.89202118 45.44818115 34.88670349 C46.64897308 34.88659019 46.64897308 34.88659019 47.87402344 34.88647461 C48.57573669 34.884254 49.27744995 34.88203339 50.00042725 34.87974548 C52.10595088 35.0063719 53.97407628 35.42679979 56 36 C56.28883414 40.06534057 55.57875609 42.33058355 53.5 45.8125 C53.0359375 46.60269531 52.571875 47.39289063 52.09375 48.20703125 C51.7328125 48.79871094 51.371875 49.39039063 51 50 C50.34 50 49.68 50 49 50 C49 50.99 49 51.98 49 53 C47.68 53 46.36 53 45 53 C45 53.66 45 54.32 45 55 C41.68929162 56.00109515 38.69915231 56.10356134 35.25 56.0625 C34.26515625 56.05347656 33.2803125 56.04445312 32.265625 56.03515625 C31.51796875 56.02355469 30.7703125 56.01195312 30 56 C30 55.34 30 54.68 30 54 C31.03125 53.95875 32.0625 53.9175 33.125 53.875 C37.3403621 52.92314404 38.90259295 51.82574766 41.93359375 48.9609375 C43.55737296 46.34711225 43.55737296 46.34711225 43 40 C37.06 40 31.12 40 25 40 C25.07908908 47.28373595 25.07908908 47.28373595 27 49 C27.04063832 50.66617115 27.042721 52.33388095 27 54 C24.69 53.34 22.38 52.68 20 52 C20 51.01 20 50.02 20 49 C18.68 49 17.36 49 16 49 C15.9175 48.38125 15.835 47.7625 15.75 47.125 C14.76174558 44.32494581 13.59640015 44.25886068 11 43 C9.21735084 40.1259813 8.72182657 37.80505537 8.5859375 34.453125 C8.54726562 33.60878906 8.50859375 32.76445313 8.46875 31.89453125 C8.4378125 31.02183594 8.406875 30.14914063 8.375 29.25 C8.33632812 28.36183594 8.29765625 27.47367188 8.2578125 26.55859375 C8.16379678 24.37272833 8.08081998 22.18639308 8 20 C2.39 19.67 -3.22 19.34 -9 19 C-9 19.99 -9 20.98 -9 22 C-15 20.5 -15 20.5 -21 19 C-21 18.34 -21 17.68 -21 17 C-16.71 17 -12.42 17 -8 17 C-8 16.34 -8 15.68 -8 15 C-9.32 15 -10.64 15 -12 15 C-12.1953125 8.9453125 -12.1953125 8.9453125 -12 7 C-10 5 -10 5 -7.6171875 4.8046875 C-6.71226563 4.82789062 -5.80734375 4.85109375 -4.875 4.875 C-3.96492188 4.89304687 -3.05484375 4.91109375 -2.1171875 4.9296875 C-1.41851562 4.95289062 -0.71984375 4.97609375 0 5 C0 3.35 0 1.7 0 0 Z " fill="#FBF9F0" transform="translate(73,65)"/>
<path d="M0 0 C4.87664009 -0.34833144 7.77050005 0.58314288 12 3 C12 2.01 12 1.02 12 0 C14.81256281 -0.02684312 17.62487241 -0.04676188 20.4375 -0.0625 C21.23994141 -0.07087891 22.04238281 -0.07925781 22.86914062 -0.08789062 C24.91295221 -0.0965143 26.95683902 -0.0522815 29 0 C30.53108061 1.53108061 30.17943942 2.98146485 30.24609375 5.11328125 C30.27896484 5.94923828 30.31183594 6.78519531 30.34570312 7.64648438 C30.40649351 9.41199238 30.46383262 11.17762287 30.51757812 12.94335938 C30.56881836 14.2030957 30.56881836 14.2030957 30.62109375 15.48828125 C30.6461499 16.25696533 30.67120605 17.02564941 30.69702148 17.81762695 C31.03699456 20.2664741 31.70402295 21.90127599 33 24 C35.0335948 25.26804566 35.0335948 25.26804566 37 26 C37 27.32 37 28.64 37 30 C38.32 30 39.64 30 41 30 C41.495 31.485 41.495 31.485 42 33 C45.00847418 34.22520264 45.00847418 34.22520264 48 35 C47.67 34.175 47.34 33.35 47 32.5 C45.83217191 28.4126017 45.8541115 25.23076656 46 21 C59.42857143 18.71428571 59.42857143 18.71428571 64 21 C65.41209677 25.90080645 65.41209677 25.90080645 65 29 C63.13106448 31.77720324 60.9688197 33.47897283 58 35 C54.0625 35.375 54.0625 35.375 51 35 C51 35.66 51 36.32 51 37 C55.95 36.67 60.9 36.34 66 36 C66 35.34 66 34.68 66 34 C67.32 34 68.64 34 70 34 C70 33.01 70 32.02 70 31 C70.66 31 71.32 31 72 31 C72.103125 30.443125 72.20625 29.88625 72.3125 29.3125 C73 27 73 27 74.5 24.5625 C76.33226701 21.75184251 76.33226701 21.75184251 77 17 C55.22 16.505 55.22 16.505 33 16 C33 15.67 33 15.34 33 15 C48.18 15 63.36 15 79 15 C78.67 18.63 78.34 22.26 78 26 C77.979375 27.2375 77.95875 28.475 77.9375 29.75 C76.50103437 34.72974752 73.18293092 37.13103809 69 40 C63.96375333 42.46216504 57.5975993 43.31285676 52 43 C49.9375 41.59765625 49.9375 41.59765625 48 40 C45.85728266 39.19562053 45.85728266 39.19562053 43.625 38.625 C39.02558334 37.16258251 36.34372281 35.50683124 33 32 C32.27648573 30.01985568 31.59734611 28.02178685 31 26 C30.01 25.67 29.02 25.34 28 25 C28 17.41 28 9.82 28 2 C26.123125 2.12375 24.24625 2.2475 22.3125 2.375 C21.25675781 2.44460937 20.20101562 2.51421875 19.11328125 2.5859375 C16.09322731 2.98760089 13.75921946 3.74069019 11 5 C11.16137451 5.72453369 11.32274902 6.44906738 11.48901367 7.19555664 C11.9668102 9.81784463 12.13925233 12.21131512 12.17578125 14.87109375 C12.19962891 15.77537109 12.22347656 16.67964844 12.24804688 17.61132812 C12.29092131 19.49130731 12.32222332 21.37158699 12.34179688 23.25195312 C12.56611788 30.58151165 14.01934477 34.01934477 19.25 39.25 C19.8275 39.8275 20.405 40.405 21 41 C21 41.66 21 42.32 21 43 C21.721875 43.2475 22.44375 43.495 23.1875 43.75 C26 45 26 45 28.07104492 47.04003906 C32.23643193 49.8273798 35.76602555 49.60261908 40.67578125 49.609375 C42.06351997 49.63417938 42.06351997 49.63417938 43.47929382 49.65948486 C46.42376365 49.70792996 49.36771713 49.72932811 52.3125 49.75 C54.31317697 49.77816259 56.31382992 49.80809042 58.31445312 49.83984375 C63.20959291 49.9136881 68.10444663 49.96328414 73 50 C73 50.33 73 50.66 73 51 C67.02267229 51.09931654 61.0458312 51.17167995 55.06787109 51.21972656 C53.03686143 51.23976836 51.00590894 51.26700947 48.97509766 51.30175781 C46.04575444 51.35060414 43.117178 51.37304343 40.1875 51.390625 C39.28821777 51.41127014 38.38893555 51.43191528 37.46240234 51.45318604 C30.10513961 51.45576983 25.11435663 49.44732309 19.35546875 44.921875 C18.28232422 43.84679687 18.28232422 43.84679687 17.1875 42.75 C16.45917969 42.04359375 15.73085937 41.3371875 14.98046875 40.609375 C9.79686033 33.77968974 9.50249263 26.77282202 9.3125 18.5 C9.27833984 17.48679687 9.24417969 16.47359375 9.20898438 15.4296875 C9.12721474 12.95323583 9.0578375 10.47710651 9 8 C8.43410156 7.8146167 7.86820313 7.6292334 7.28515625 7.43823242 C6.18494141 7.0569519 6.18494141 7.0569519 5.0625 6.66796875 C3.96615234 6.2970813 3.96615234 6.2970813 2.84765625 5.91870117 C1 5 1 5 0 2.3125 C0 1.549375 0 0.78625 0 0 Z " fill="#E1B774" transform="translate(52,84)"/>
<path d="M0 0 C0.79664062 0.00257812 1.59328125 0.00515625 2.4140625 0.0078125 C3.20554687 0.00523438 3.99703125 0.00265625 4.8125 0 C7.0390625 0.1328125 7.0390625 0.1328125 10.0390625 1.1328125 C10.0390625 1.7928125 10.0390625 2.4528125 10.0390625 3.1328125 C10.6371875 3.3596875 11.2353125 3.5865625 11.8515625 3.8203125 C15.08344726 5.75944336 16.49952613 8.40776425 17.61328125 11.96875 C19.44941757 21.30103918 17.67624235 31.17068909 15.0390625 40.1328125 C15.65950439 40.10251953 16.27994629 40.07222656 16.91918945 40.04101562 C19.72994468 39.90420081 22.54075235 39.76849414 25.3515625 39.6328125 C26.32802734 39.58511719 27.30449219 39.53742187 28.31054688 39.48828125 C29.24833984 39.44316406 30.18613281 39.39804687 31.15234375 39.3515625 C32.01641846 39.30966797 32.88049316 39.26777344 33.77075195 39.22460938 C35.52568554 39.15358849 37.28269242 39.1328125 39.0390625 39.1328125 C39.5340625 41.6078125 39.5340625 41.6078125 40.0390625 44.1328125 C41.43125 44.16375 41.43125 44.16375 42.8515625 44.1953125 C48.60317604 44.99676685 53.58996106 48.56910438 58.0390625 52.1328125 C59.36328125 54.36328125 59.36328125 54.36328125 60.0390625 56.1328125 C60.6990625 56.1328125 61.3590625 56.1328125 62.0390625 56.1328125 C62.0390625 57.1228125 62.0390625 58.1128125 62.0390625 59.1328125 C60.7190625 59.1328125 59.3990625 59.1328125 58.0390625 59.1328125 C58.0390625 58.4728125 58.0390625 57.8128125 58.0390625 57.1328125 C57.02585938 57.16761719 56.01265625 57.20242187 54.96875 57.23828125 C53.6172042 57.26643845 52.26564031 57.29373653 50.9140625 57.3203125 C50.24890625 57.34544922 49.58375 57.37058594 48.8984375 57.39648438 C44.12410854 57.46669509 41.16309514 56.44037739 37.0390625 54.1328125 C34.7129768 53.75218029 32.37850986 53.42011305 30.0390625 53.1328125 C28.98074219 52.81570312 27.92242187 52.49859375 26.83203125 52.171875 C22.80009134 51.06734769 18.93239544 50.51479318 14.7890625 50.0703125 C7.40638856 49.25525452 7.40638856 49.25525452 4.0390625 48.1328125 C4.0390625 47.1428125 4.0390625 46.1528125 4.0390625 45.1328125 C5.0290625 45.1328125 6.0190625 45.1328125 7.0390625 45.1328125 C7.0390625 44.4728125 7.0390625 43.8128125 7.0390625 43.1328125 C8.0290625 42.4728125 9.0190625 41.8128125 10.0390625 41.1328125 C12.06971512 35.14773111 12.26806654 29.27447122 12.3515625 23.0078125 C12.36920654 22.24404297 12.38685059 21.48027344 12.4050293 20.69335938 C12.39877892 15.44303951 11.3985248 11.82683513 9.0390625 7.1328125 C4.7490625 6.8028125 0.4590625 6.4728125 -3.9609375 6.1328125 C-2.77192296 0.1877398 -2.77192296 0.1877398 0 0 Z " fill="#EDA235" transform="translate(75.9609375,19.8671875)"/>
<path d="M0 0 C1.134375 0.020625 2.26875 0.04125 3.4375 0.0625 C3.9325 2.0425 3.9325 2.0425 4.4375 4.0625 C-1.3125 6.0625 -1.3125 6.0625 -3.5625 6.0625 C-4.50891108 8.90173325 -4.68548833 10.68925256 -4.703125 13.6328125 C-4.73212891 14.97859375 -4.73212891 14.97859375 -4.76171875 16.3515625 C-4.79514947 18.2185397 -4.81376886 20.08585038 -4.81640625 21.953125 C-5.00347993 28.86500522 -6.79179923 33.32419722 -10.5625 39.0625 C-10.93052734 39.70952881 -11.29855469 40.35655762 -11.67773438 41.02319336 C-14.86077816 46.21755375 -18.82582177 48.26101869 -24.5625 50.0625 C-28.18938539 50.57111005 -31.74087 50.57874772 -35.3984375 50.5234375 C-36.39960602 50.52252106 -37.40077454 50.52160461 -38.43228149 50.5206604 C-40.53156322 50.51465619 -42.63083767 50.49900701 -44.72998047 50.47412109 C-47.94921198 50.43736628 -51.16729823 50.43310396 -54.38671875 50.43359375 C-56.43230165 50.42377047 -58.47787676 50.41211693 -60.5234375 50.3984375 C-61.485914 50.39621185 -62.4483905 50.39398621 -63.44003296 50.39169312 C-64.33171173 50.37893341 -65.2233905 50.36617371 -66.14208984 50.35302734 C-66.92546722 50.34540375 -67.7088446 50.33778015 -68.51596069 50.32992554 C-70.5625 50.0625 -70.5625 50.0625 -73.5625 48.0625 C-72.24531982 48.06773682 -70.92813965 48.07297363 -69.57104492 48.07836914 C-64.69019244 48.09645149 -59.80934293 48.10794389 -54.9284668 48.11743164 C-52.81485496 48.12246444 -50.70124662 48.1292912 -48.58764648 48.13793945 C-45.55191182 48.15005104 -42.51622314 48.15573881 -39.48046875 48.16015625 C-38.53350632 48.16531754 -37.58654388 48.17047882 -36.61088562 48.17579651 C-35.73019913 48.17587204 -34.84951263 48.17594757 -33.94213867 48.17602539 C-33.16714523 48.178246 -32.39215179 48.18046661 -31.59367371 48.18275452 C-29.35809412 48.13859077 -29.35809412 48.13859077 -26.5625 47.0625 C-24.22950175 47.02295766 -21.89541811 47.01848268 -19.5625 47.0625 C-19.2325 46.0725 -18.9025 45.0825 -18.5625 44.0625 C-17.9025 44.0625 -17.2425 44.0625 -16.5625 44.0625 C-16.294375 43.32 -16.02625 42.5775 -15.75 41.8125 C-14.60952351 39.17139655 -13.27572928 37.34680571 -11.5625 35.0625 C-8.50820234 29.41429514 -9.14092074 22.88362413 -8.99609375 16.63476562 C-8.95162109 15.26674805 -8.95162109 15.26674805 -8.90625 13.87109375 C-8.88755859 13.04407959 -8.86886719 12.21706543 -8.84960938 11.36499023 C-8.54001645 8.88219186 -7.80354628 7.21791996 -6.5625 5.0625 C-7.8825 4.7325 -9.2025 4.4025 -10.5625 4.0625 C-10.5625 3.4025 -10.5625 2.7425 -10.5625 2.0625 C-18.23473867 2.17977993 -25.90682716 2.30461597 -33.57885742 2.43481445 C-36.19113344 2.47824124 -38.80343928 2.51991038 -41.41577148 2.55981445 C-45.16138719 2.61733007 -48.90685169 2.68107764 -52.65234375 2.74609375 C-54.41637794 2.77116249 -54.41637794 2.77116249 -56.21604919 2.79673767 C-57.29709427 2.81668289 -58.37813934 2.83662811 -59.49194336 2.85717773 C-60.44902695 2.87272202 -61.40611053 2.8882663 -62.39219666 2.90428162 C-64.54112694 2.8231861 -64.54112694 2.8231861 -65.5625 4.0625 C-65.79325082 5.40997084 -65.97403063 6.76627565 -66.125 8.125 C-66.269375 9.424375 -66.41375 10.72375 -66.5625 12.0625 C-64.62431396 12.10008423 -64.62431396 12.10008423 -62.64697266 12.13842773 C-57.86480344 12.23241624 -53.08278238 12.33265766 -48.30078125 12.43481445 C-46.22887634 12.47819577 -44.15693493 12.51986846 -42.08496094 12.55981445 C-39.11121609 12.61743965 -36.13765552 12.68115625 -33.1640625 12.74609375 C-31.76868759 12.77116249 -31.76868759 12.77116249 -30.34512329 12.79673767 C-29.05401138 12.8266555 -29.05401138 12.8266555 -27.73681641 12.85717773 C-26.97736725 12.87272202 -26.21791809 12.8882663 -25.43545532 12.90428162 C-23.5625 13.0625 -23.5625 13.0625 -21.5625 14.0625 C-21.3125 20.6875 -21.3125 20.6875 -23.5625 24.0625 C-23.2325 21.0925 -22.9025 18.1225 -22.5625 15.0625 C-37.7425 15.0625 -52.9225 15.0625 -68.5625 15.0625 C-68.5625 4.0625 -68.5625 4.0625 -67.5625 1.0625 C-66.77545181 1.06472061 -65.98840363 1.06694122 -65.17750549 1.06922913 C-57.7755967 1.08923113 -50.37370092 1.10447366 -42.97177219 1.11431217 C-39.16598423 1.1195402 -35.36021852 1.12663638 -31.55444336 1.13793945 C-27.88457456 1.1487712 -24.21472722 1.15477744 -20.54484367 1.15737724 C-19.14175008 1.15923097 -17.73865771 1.1628506 -16.3355732 1.16823006 C-14.3768032 1.17544419 -12.4180118 1.17590809 -10.45922852 1.17602539 C-9.34226089 1.178246 -8.22529327 1.18046661 -7.07447815 1.18275452 C-3.67649191 1.02008463 -3.79508101 0.06658037 0 0 Z " fill="#DDA958" transform="translate(153.5625,83.9375)"/>
<path d="M0 0 C15.18 0 30.36 0 46 0 C44.86040915 10.25631769 44.86040915 10.25631769 41.875 14.875 C41.31554687 15.77992187 40.75609375 16.68484375 40.1796875 17.6171875 C36.34992542 21.80384497 32.1497271 23.07128767 26.66015625 23.46875 C25.12794818 23.50285032 23.59503484 23.51270279 22.0625 23.5 C21.26561768 23.49427979 20.46873535 23.48855957 19.64770508 23.48266602 C14.54634424 23.32687124 10.59015807 22.85082954 6.48046875 19.578125 C3.95982453 16.89121137 1.9602218 14.12410349 0 11 C0.99 10.67 1.98 10.34 3 10 C3.33 11.65 3.66 13.3 4 15 C5.32 15 6.64 15 8 15 C8.33 15.99 8.66 16.98 9 18 C12.00847418 19.22520264 12.00847418 19.22520264 15 20 C14.67 19.175 14.34 18.35 14 17.5 C12.83217191 13.4126017 12.8541115 10.23076656 13 6 C26.42857143 3.71428571 26.42857143 3.71428571 31 6 C32.41209677 10.90080645 32.41209677 10.90080645 32 14 C30.13106448 16.77720324 27.9688197 18.47897283 25 20 C21.0625 20.375 21.0625 20.375 18 20 C18 20.66 18 21.32 18 22 C22.95 21.67 27.9 21.34 33 21 C33 20.34 33 19.68 33 19 C34.32 19 35.64 19 37 19 C37 18.01 37 17.02 37 16 C37.66 16 38.32 16 39 16 C39.103125 15.443125 39.20625 14.88625 39.3125 14.3125 C40 12 40 12 41.5 9.5625 C43.33226701 6.75184251 43.33226701 6.75184251 44 2 C22.22 1.505 22.22 1.505 0 1 C0 0.67 0 0.34 0 0 Z " fill="#F8E8CA" transform="translate(85,99)"/>
<path d="M0 0 C8.86623018 0.17797177 16.84992117 1.80381433 25.38354492 4.05249023 C32.18461893 5.83660095 38.98583479 7.21275491 45.91015625 8.421875 C49 9 49 9 52 10 C52 10.66 52 11.32 52 12 C34.51 12 17.02 12 -1 12 C-1 3 -1 3 0 0 Z " fill="#FCFAF0" transform="translate(87,72)"/>
<path d="M0 0 C0.99 0.33 1.98 0.66 3 1 C2.67 1.99 2.34 2.98 2 4 C3.299375 4.144375 4.59875 4.28875 5.9375 4.4375 C9.875 4.875 9.875 4.875 11 6 C10.90982004 8.19050021 10.75333792 10.378466 10.5625 12.5625 C10.46066406 13.76003906 10.35882813 14.95757812 10.25390625 16.19140625 C10.17011719 17.11824219 10.08632812 18.04507813 10 19 C10.66 19 11.32 19 12 19 C12 23.95 12 28.9 12 34 C11.67 34 11.34 34 11 34 C10.67 35.65 10.34 37.3 10 39 C9.67 39 9.34 39 9 39 C8.505 29.595 8.505 29.595 8 20 C2.39 19.67 -3.22 19.34 -9 19 C-9 19.99 -9 20.98 -9 22 C-15 20.5 -15 20.5 -21 19 C-21 18.34 -21 17.68 -21 17 C-16.71 17 -12.42 17 -8 17 C-8 16.34 -8 15.68 -8 15 C-9.32 15 -10.64 15 -12 15 C-12.1953125 8.9453125 -12.1953125 8.9453125 -12 7 C-10 5 -10 5 -7.6171875 4.8046875 C-6.71226563 4.82789062 -5.80734375 4.85109375 -4.875 4.875 C-3.96492188 4.89304687 -3.05484375 4.91109375 -2.1171875 4.9296875 C-1.41851562 4.95289062 -0.71984375 4.97609375 0 5 C0 3.35 0 1.7 0 0 Z " fill="#F9E9C8" transform="translate(73,65)"/>
<path d="M0 0 C2.24940295 -0.08119503 4.49964871 -0.13927819 6.75 -0.1875 C8.00296875 -0.22230469 9.2559375 -0.25710937 10.546875 -0.29296875 C14.16921767 0.0143567 15.56852227 0.34038362 18 3 C18.71321406 7.91325242 18.80420972 9.85461039 15.9375 13.9375 C12.5318374 16.32870991 10.11432986 16.7579806 6 17 C5.67 18.98 5.34 20.96 5 23 C2.69 23 0.38 23 -2 23 C-1.85823579 20.29139876 -1.71171784 17.58319248 -1.5625 14.875 C-1.50352539 13.73417969 -1.50352539 13.73417969 -1.44335938 12.5703125 C-1.20490998 8.31490797 -0.79769763 4.19629174 0 0 Z " fill="#EA7F4B" transform="translate(45,141)"/>
<path d="M0 0 C3 2 3 2 4 5 C4.42815249 10.22744318 4.3858516 15.2282968 2 20 C0.3125 20.875 0.3125 20.875 -2 21 C-3.155 21.103125 -4.31 21.20625 -5.5 21.3125 C-9 21 -9 21 -11.18359375 19.3515625 C-14.04670465 15.6449114 -13.61298045 12.39616095 -13.44140625 7.86328125 C-13 5 -13 5 -11 1.75 C-6.89366112 -0.64536434 -4.71186325 -0.53198456 0 0 Z " fill="#E38A60" transform="translate(126,170)"/>
<path d="M0 0 C2.5 1.375 2.5 1.375 4 4 C4.69337805 8.72612852 4.59103488 12.68360414 2.625 17.0625 C0.77651211 19.26646634 -0.18009807 19.90344784 -3.0234375 20.23828125 C-9.28510961 20.43590878 -9.28510961 20.43590878 -12.5625 18.4375 C-15.07580568 14.17580776 -14.32678786 10.41608071 -13.25 5.75 C-10.52427064 -0.24660458 -6.13832973 -1.06917629 0 0 Z " fill="#E2936C" transform="translate(78,144)"/>
<path d="M0 0 C0.79664062 0.00257812 1.59328125 0.00515625 2.4140625 0.0078125 C3.20554687 0.00523438 3.99703125 0.00265625 4.8125 0 C7.0390625 0.1328125 7.0390625 0.1328125 10.0390625 1.1328125 C10.0390625 1.7928125 10.0390625 2.4528125 10.0390625 3.1328125 C10.6371875 3.3596875 11.2353125 3.5865625 11.8515625 3.8203125 C15.08344726 5.75944336 16.49952613 8.40776425 17.61328125 11.96875 C19.45526685 21.33076854 17.60784903 31.14205966 15.0390625 40.1328125 C21.6390625 40.1328125 28.2390625 40.1328125 35.0390625 40.1328125 C35.0390625 40.4628125 35.0390625 40.7928125 35.0390625 41.1328125 C31.26827564 41.30054181 27.49742591 41.46681375 23.7265625 41.6328125 C22.65470703 41.68050781 21.58285156 41.72820313 20.47851562 41.77734375 C19.45048828 41.82246094 18.42246094 41.86757813 17.36328125 41.9140625 C16.41541748 41.95595703 15.46755371 41.99785156 14.4909668 42.04101562 C12.67468026 42.1090156 10.85662152 42.1328125 9.0390625 42.1328125 C9.3484375 41.2253125 9.6578125 40.3178125 9.9765625 39.3828125 C11.78834755 33.84088175 12.25134147 29.12463566 12.2890625 23.3203125 C12.3096875 22.53849609 12.3303125 21.75667969 12.3515625 20.95117188 C12.3874503 15.58145928 11.47108377 11.92645442 9.0390625 7.1328125 C4.7490625 6.8028125 0.4590625 6.4728125 -3.9609375 6.1328125 C-2.77192296 0.1877398 -2.77192296 0.1877398 0 0 Z " fill="#DFA44B" transform="translate(75.9609375,19.8671875)"/>
<path d="M0 0 C2.1796875 0.015625 2.1796875 0.015625 4.875 0.25 C6.20144531 0.35054687 6.20144531 0.35054687 7.5546875 0.453125 C10 1 10 1 11.83984375 2.03515625 C13.73947093 5.25236996 13.04075741 8.60803334 12.6875 12.1875 C12.5956543 13.31188477 12.5956543 13.31188477 12.50195312 14.45898438 C12.34891389 16.30722745 12.17633121 18.1538335 12 20 C9.54101345 20.08076963 7.08466258 20.14037143 4.625 20.1875 C3.92632812 20.21263672 3.22765625 20.23777344 2.5078125 20.26367188 C0.4765625 20.29296875 0.4765625 20.29296875 -3 20 C-5 17 -5 17 -4.75 13.9375 C-4 11 -4 11 -2 9 C0.68839385 8.73008094 3.29141936 8.91262643 6 9 C5.67 8.34 5.34 7.68 5 7 C1.97065509 6.34227572 1.97065509 6.34227572 -1 6 C-1.042721 4.33388095 -1.04063832 2.66617115 -1 1 C-0.67 0.67 -0.34 0.34 0 0 Z " fill="#DA9975" transform="translate(124,144)"/>
<path d="M0 0 C2.375 -0.125 2.375 -0.125 5 0 C8.00617269 3.00617269 7.59585316 5.82381598 8 10 C8.13277344 9.36191406 8.26554688 8.72382813 8.40234375 8.06640625 C8.57894531 7.24011719 8.75554687 6.41382813 8.9375 5.5625 C9.11152344 4.73878906 9.28554687 3.91507813 9.46484375 3.06640625 C10 1 10 1 11 0 C13.5 -0.125 13.5 -0.125 16 0 C17 1 17 1 17.375 4.5625 C17.29532214 10.90258153 13.83409061 15.16590939 9.5 19.5 C6.67736107 21.19358336 5.23231635 21.52415941 2 21 C0 19 0 19 -0.22705078 17.02880859 C-0.21657715 16.24328613 -0.20610352 15.45776367 -0.1953125 14.6484375 C-0.18886719 13.79765625 -0.18242187 12.946875 -0.17578125 12.0703125 C-0.15902344 11.18085938 -0.14226562 10.29140625 -0.125 9.375 C-0.11597656 8.4778125 -0.10695312 7.580625 -0.09765625 6.65625 C-0.0740497 4.43723414 -0.0411231 2.21874923 0 0 Z " fill="#E68150" transform="translate(141,144)"/>
<path d="M0 0 C3.63 0 7.26 0 11 0 C11.33 1.65 11.66 3.3 12 5 C10.02 5.66 8.04 6.32 6 7 C6.61875 7.103125 7.2375 7.20625 7.875 7.3125 C10 8 10 8 12 11 C11.86061432 14.3452563 11.72889485 16.27950256 9.3046875 18.67578125 C6.42016556 20.33315911 4.55243458 20.30544409 1.25 20.1875 C-0.22726563 20.14689453 -0.22726563 20.14689453 -1.734375 20.10546875 C-2.48203125 20.07066406 -3.2296875 20.03585938 -4 20 C-4 18.35 -4 16.7 -4 15 C-1.36 15 1.28 15 4 15 C3.10664203 12.64214682 3.10664203 12.64214682 -0.0625 11.875 C-1.031875 11.58625 -2.00125 11.2975 -3 11 C-3 8.36 -3 5.72 -3 3 C-2.01 2.67 -1.02 2.34 0 2 C0 1.34 0 0.68 0 0 Z " fill="#E38452" transform="translate(82,170)"/>
<path d="M0 0 C1.21236328 0.01353516 1.21236328 0.01353516 2.44921875 0.02734375 C3.37154297 0.04474609 3.37154297 0.04474609 4.3125 0.0625 C4.69468767 1.71864657 5.02645102 3.38707024 5.3125 5.0625 C4.3125 6.0625 4.3125 6.0625 0.75 6.125 C-0.384375 6.104375 -1.51875 6.08375 -2.6875 6.0625 C-2.6875 6.7225 -2.6875 7.3825 -2.6875 8.0625 C-1.924375 8.18625 -1.16125 8.31 -0.375 8.4375 C2.3125 9.0625 2.3125 9.0625 5.3125 11.0625 C5.8125 13.4375 5.8125 13.4375 5.3125 16.0625 C3.5 18.375 3.5 18.375 0.3125 20.0625 C-3.37946186 20.3891764 -6.99181976 20.29550261 -10.6875 20.0625 C-10.6875 18.4125 -10.6875 16.7625 -10.6875 15.0625 C-8.0475 15.3925 -5.4075 15.7225 -2.6875 16.0625 C-3.41018235 12.7639861 -3.41018235 12.7639861 -6.75 11.375 C-8.2040625 10.7253125 -8.2040625 10.7253125 -9.6875 10.0625 C-9.9375 4.4375 -9.9375 4.4375 -7.6875 1.0625 C-4.80538698 0.10179566 -2.98899956 -0.04331883 0 0 Z " fill="#DC8E68" transform="translate(95.6875,143.9375)"/>
<path d="M0 0 C4.95 0 9.9 0 15 0 C15 4.83300485 14.81229658 5.93940322 12.5 9.8125 C11.80390625 10.99779297 11.80390625 10.99779297 11.09375 12.20703125 C10.7328125 12.79871094 10.371875 13.39039062 10 14 C9.34 14 8.68 14 8 14 C8 14.99 8 15.98 8 17 C6.68 17 5.36 17 4 17 C4 17.66 4 18.32 4 19 C0.68929162 20.00109515 -2.30084769 20.10356134 -5.75 20.0625 C-6.73484375 20.05347656 -7.7196875 20.04445313 -8.734375 20.03515625 C-9.48203125 20.02355469 -10.2296875 20.01195313 -11 20 C-11 19.34 -11 18.68 -11 18 C-9.453125 17.938125 -9.453125 17.938125 -7.875 17.875 C-3.63999441 16.91870841 -1.94820427 15.88935056 0.91015625 12.765625 C2.69045545 9.88141268 2.39173498 7.26445815 2 4 C1.34 4 0.68 4 0 4 C0 2.68 0 1.36 0 0 Z " fill="#FAFCF6" transform="translate(114,101)"/>
<path d="M0 0 C1.0828125 0.37125 1.0828125 0.37125 2.1875 0.75 C2.1875 1.41 2.1875 2.07 2.1875 2.75 C3.1775 2.75 4.1675 2.75 5.1875 2.75 C5.1875 4.73 5.1875 6.71 5.1875 8.75 C3.5375 8.75 1.8875 8.75 0.1875 8.75 C0.1875 11.72 0.1875 14.69 0.1875 17.75 C1.1775 17.75 2.1675 17.75 3.1875 17.75 C3.1875 19.07 3.1875 20.39 3.1875 21.75 C0.20537087 23.24106457 -2.52859658 22.86941467 -5.8125 22.75 C-8.00756472 20.55493528 -7.46190787 15.97124419 -7.6875 12.9375 C-7.77257812 12.11701172 -7.85765625 11.29652344 -7.9453125 10.45117188 C-8.11177799 8.1187634 -8.18613758 6.05940126 -7.8125 3.75 C-5.1336412 0.7549184 -4.05238069 -0.36021162 0 0 Z " fill="#DA9876" transform="translate(104.8125,167.25)"/>
<path d="M0 0 C0 0.99 0 1.98 0 3 C1.32 3 2.64 3 4 3 C4 4.65 4 6.3 4 8 C2.68 8.33 1.36 8.66 0 9 C-0.66 11.64 -1.32 14.28 -2 17 C-0.68 17 0.64 17 2 17 C2 18.65 2 20.3 2 22 C0.52093108 22.02689216 -0.95827483 22.04634621 -2.4375 22.0625 C-3.67306641 22.07990234 -3.67306641 22.07990234 -4.93359375 22.09765625 C-7 22 -7 22 -8 21 C-8.34514925 18.03230647 -8.60832879 15.10268792 -8.8125 12.125 C-8.88919922 11.29613281 -8.96589844 10.46726563 -9.04492188 9.61328125 C-9.19700289 7.34489213 -9.28427688 5.2561247 -9 3 C-6.24428119 -0.12314799 -4.0644473 -0.33870394 0 0 Z " fill="#D9906B" transform="translate(114,142)"/>
<path d="M0 0 C0 0.66 0 1.32 0 2 C-0.99 2 -1.98 2 -3 2 C-3 2.99 -3 3.98 -3 5 C-2.16082031 5.16435547 -2.16082031 5.16435547 -1.3046875 5.33203125 C6.14804345 6.8058028 13.57453495 8.3950724 21 10 C17.22628488 11.3357457 14.14168653 10.72408671 10.25 10.0625 C9.07953125 9.86785156 7.9090625 9.67320313 6.703125 9.47265625 C5.81109375 9.31667969 4.9190625 9.16070312 4 9 C3.67 12.96 3.34 16.92 3 21 C20.49 21 37.98 21 56 21 C56 20.34 56 19.68 56 19 C53.69 18.67 51.38 18.34 49 18 C49 17.67 49 17.34 49 17 C57.57142857 18 57.57142857 18 61 19 C61.33 18.34 61.66 17.68 62 17 C62.495 19.475 62.495 19.475 63 22 C43.2 22 23.4 22 3 22 C2.67 22.99 2.34 23.98 2 25 C2 23.68 2 22.36 2 21 C1.34 21 0.68 21 0 21 C0 16.71 0 12.42 0 8 C-2.64 7.34 -5.28 6.68 -8 6 C-7.67 4.68 -7.34 3.36 -7 2 C-4.55683729 0.74709605 -2.75474605 0 0 0 Z " fill="#D9B16F" transform="translate(83,63)"/>
<path d="M0 0 C1.875 0.3125 1.875 0.3125 4 1 C7.70020209 6.55030313 7.18279055 12.47142138 7.1875 18.9375 C7.19974609 19.81857422 7.21199219 20.69964844 7.22460938 21.60742188 C7.22654297 22.46787109 7.22847656 23.32832031 7.23046875 24.21484375 C7.23457764 24.98948975 7.23868652 25.76413574 7.24291992 26.56225586 C7 29 7 29 5 35 C10.61 35 16.22 35 22 35 C22.33 33.68 22.66 32.36 23 31 C25.97 31.33 28.94 31.66 32 32 C32.1546875 33.3921875 32.1546875 33.3921875 32.3125 34.8125 C33.63277105 38.17481067 33.63277105 38.17481067 36.40625 38.85546875 C38.36609506 39.29011181 40.3270693 39.7196902 42.2890625 40.14453125 C46.37682523 41.43447367 47.72305428 43.46680837 50 47 C49.505 47.99 49.505 47.99 49 49 C48.01 48.34 47.02 47.68 46 47 C46 46.34 46 45.68 46 45 C45.071875 44.71125 44.14375 44.4225 43.1875 44.125 C40 43 40 43 37 41 C35.824375 40.7525 34.64875 40.505 33.4375 40.25 C31.7359375 39.63125 31.7359375 39.63125 30 39 C28.5625 35.875 28.5625 35.875 28 33 C26.68 33 25.36 33 24 33 C23.67 34.32 23.34 35.64 23 37 C16.4 37 9.8 37 3 37 C3 31 3 31 4 30 C5.80241907 19.1854856 6.29057415 9.43586123 0 0 Z " fill="#F6E5BB" transform="translate(88,23)"/>
<path d="M0 0 C0.99 0.33 1.98 0.66 3 1 C2.67 1.721875 2.34 2.44375 2 3.1875 C0.99396471 6.01697427 0.83022598 8.02895466 1 11 C2.32 11.33 3.64 11.66 5 12 C5.33 11.01 5.66 10.02 6 9 C6 10.65 6 12.3 6 14 C3.69 13.67 1.38 13.34 -1 13 C-1 14.32 -1 15.64 -1 17 C0.27875 16.896875 1.5575 16.79375 2.875 16.6875 C3.59429687 16.62949219 4.31359375 16.57148437 5.0546875 16.51171875 C7.39519216 16.12606964 7.39519216 16.12606964 9 13 C9 14.65 9 16.3 9 18 C4.05 18 -0.9 18 -6 18 C-5.67 17.01 -5.34 16.02 -5 15 C-7.31 15 -9.62 15 -12 15 C-12.1953125 8.9453125 -12.1953125 8.9453125 -12 7 C-10 5 -10 5 -7.6171875 4.8046875 C-6.71226563 4.82789062 -5.80734375 4.85109375 -4.875 4.875 C-3.50988281 4.90207031 -3.50988281 4.90207031 -2.1171875 4.9296875 C-1.41851562 4.95289062 -0.71984375 4.97609375 0 5 C0 3.35 0 1.7 0 0 Z " fill="#F5F0CD" transform="translate(73,65)"/>
<path d="M0 0 C1.0725 -0.01417969 2.145 -0.02835937 3.25 -0.04296875 C6 0.1875 6 0.1875 8 2.1875 C8.5 4.375 8.5 4.375 8 7.1875 C6.19657349 9.71439412 4.15750549 11.95936189 2 14.1875 C-2.61518711 13.33469369 -5.32601838 10.98874839 -8 7.1875 C-8.375 3.8125 -8.375 3.8125 -8 1.1875 C-5.27457733 -0.17521133 -3.03912726 0.01826399 0 0 Z " fill="#D9926E" transform="translate(106,103.8125)"/>
<path d="M0 0 C2.87667975 0.03098757 5.43522999 0.20757666 8.1875 1.125 C7.8575 1.785 7.5275 2.445 7.1875 3.125 C3.8875 2.795 0.5875 2.465 -2.8125 2.125 C-3.1425 3.775 -3.4725 5.425 -3.8125 7.125 C-1.8325 7.125 0.1475 7.125 2.1875 7.125 C2.5175 8.115 2.8475 9.105 3.1875 10.125 C1.90875 10.2075 0.63 10.29 -0.6875 10.375 C-3.96477774 10.70715235 -3.96477774 10.70715235 -6.3125 12.875 C-6.86567368 15.36428158 -6.95374247 17.58263562 -6.8125 20.125 C-8.1325 20.125 -9.4525 20.125 -10.8125 20.125 C-10.8125 18.805 -10.8125 17.485 -10.8125 16.125 C-12.1325 16.125 -13.4525 16.125 -14.8125 16.125 C-14.4825 13.485 -14.1525 10.845 -13.8125 8.125 C-12.1625 7.795 -10.5125 7.465 -8.8125 7.125 C-8.8125 5.475 -8.8125 3.825 -8.8125 2.125 C-8.173125 1.980625 -7.53375 1.83625 -6.875 1.6875 C-0.7814441 0.02562112 -0.7814441 0.02562112 0 0 Z " fill="#F8ECDD" transform="translate(126.8125,142.875)"/>
<path d="M0 0 C2 1.5 2 1.5 3 3 C0.69 3 -1.62 3 -4 3 C-3.34 3.66 -2.68 4.32 -2 5 C-1.73008094 7.68839385 -1.91262643 10.29141936 -2 13 C-3.65 13.33 -5.3 13.66 -7 14 C-7 11.03 -7 8.06 -7 5 C-7.99 5.33 -8.98 5.66 -10 6 C-10.02687279 7.81242052 -10.04633715 9.62495233 -10.0625 11.4375 C-10.07410156 12.44683594 -10.08570312 13.45617187 -10.09765625 14.49609375 C-10.28612676 16.94021067 -10.28612676 16.94021067 -9 18 C-7.14712498 18.07226502 -5.29166122 18.0838122 -3.4375 18.0625 C-2.42558594 18.05347656 -1.41367188 18.04445312 -0.37109375 18.03515625 C0.41136719 18.02355469 1.19382812 18.01195312 2 18 C2 18.66 2 19.32 2 20 C-1.71016634 21.18725323 -5.12790678 21.34572261 -9 21 C-11.81927879 18.87167147 -12.86949186 17.65434081 -13.56640625 14.16015625 C-13.55599431 5.90349076 -13.55599431 5.90349076 -11 1.75 C-6.87110078 -0.65852455 -4.73586411 -0.61107924 0 0 Z " fill="#E2A07C" transform="translate(126,170)"/>
<path d="M0 0 C1.98 0 3.96 0 6 0 C6 5.94 6 11.88 6 18 C3.69 18 1.38 18 -1 18 C-1.18451025 5.33029613 -1.18451025 5.33029613 0 0 Z " fill="#D99773" transform="translate(162,146)"/>
<path d="M0 0 C6.0546875 -0.1953125 6.0546875 -0.1953125 8 0 C10 2 10 2 10.15112305 4.50610352 C10.10511963 5.53662842 10.05911621 6.56715332 10.01171875 7.62890625 C9.94114258 9.30436523 9.94114258 9.30436523 9.86914062 11.01367188 C9.80919922 12.18478516 9.74925781 13.35589844 9.6875 14.5625 C9.63916016 15.73748047 9.59082031 16.91246094 9.54101562 18.12304688 C9.14238423 26.85761577 9.14238423 26.85761577 8 28 C5.32941149 28.14115161 2.67567762 28.04247107 0 28 C0 27.67 0 27.34 0 27 C2.31 27 4.62 27 7 27 C7 21.06 7 15.12 7 9 C5.02 9 3.04 9 1 9 C0.67 6.03 0.34 3.06 0 0 Z " fill="#F2DAC6" transform="translate(161,137)"/>
<path d="M0 0 C-0.99 0.495 -0.99 0.495 -2 1 C-1.34 6.94 -0.68 12.88 0 19 C-0.99 19.66 -1.98 20.32 -3 21 C-3.33 20.34 -3.66 19.68 -4 19 C-5.98 19.33 -7.96 19.66 -10 20 C-8.9790625 18.9790625 -8.9790625 18.9790625 -7.9375 17.9375 C-5.6110158 15.05366249 -5.6110158 15.05366249 -6.25 11.1875 C-6.62125 9.6096875 -6.62125 9.6096875 -7 8 C-8.65 7.67 -10.3 7.34 -12 7 C-12 6.67 -12 6.34 -12 6 C-10.02 5.67 -8.04 5.34 -6 5 C-6 3.68 -6 2.36 -6 1 C-8.64 0.67 -11.28 0.34 -14 0 C-14 -0.33 -14 -0.66 -14 -1 C-8.51053913 -2.12029814 -5.16569441 -1.79217969 0 0 Z " fill="#FBF0E1" transform="translate(99,170)"/>
<path d="M0 0 C1.32 0.33 2.64 0.66 4 1 C4.61176787 10.85626008 4.61176787 10.85626008 2.5625 14.6875 C-1.20633333 16.61787805 -4.83927187 16.51481626 -9 16 C-10 15 -10 15 -10.09765625 12.93359375 C-10.08605469 12.10988281 -10.07445313 11.28617188 -10.0625 10.4375 C-10.05347656 9.61121094 -10.04445313 8.78492188 -10.03515625 7.93359375 C-10.02355469 7.29550781 -10.01195313 6.65742188 -10 6 C-9.34 5.67 -8.68 5.34 -8 5 C-8 6.65 -8 8.3 -8 10 C-5.36 10.33 -2.72 10.66 0 11 C0 7.37 0 3.74 0 0 Z " fill="#DE875D" transform="translate(77,148)"/>
<path d="M0 0 C0.66 0 1.32 0 2 0 C3.22433319 2.44866637 3.12927868 4.06170021 3.1328125 6.796875 C3.13474609 8.23546875 3.13474609 8.23546875 3.13671875 9.703125 C3.13285156 10.70859375 3.12898438 11.7140625 3.125 12.75 C3.12886719 13.74 3.13273437 14.73 3.13671875 15.75 C3.13542969 16.71421875 3.13414063 17.6784375 3.1328125 18.671875 C3.13168457 19.5494043 3.13055664 20.42693359 3.12939453 21.33105469 C2.98828181 24.24170428 2.47906987 27.12558077 2 30 C8.6 30 15.2 30 22 30 C22 30.33 22 30.66 22 31 C18.22921314 31.16772931 14.45836341 31.33400125 10.6875 31.5 C9.61564453 31.54769531 8.54378906 31.59539063 7.43945312 31.64453125 C6.41142578 31.68964844 5.38339844 31.73476563 4.32421875 31.78125 C3.37635498 31.82314453 2.42849121 31.86503906 1.4519043 31.90820312 C-0.36438224 31.9762031 -2.18244098 32 -4 32 C-3.566875 30.8553125 -3.566875 30.8553125 -3.125 29.6875 C-0.08440808 19.72111537 0.2509745 10.3317836 0 0 Z " fill="#D8AA5C" transform="translate(89,30)"/>
<path d="M0 0 C5.75 -0.125 5.75 -0.125 8 1 C8 1.99 8 2.98 8 4 C8.66 4.33 9.32 4.66 10 5 C8.68 5 7.36 5 6 5 C6 4.01 6 3.02 6 2 C4.6078125 2.4640625 4.6078125 2.4640625 3.1875 2.9375 C1.125 3.625 -0.9375 4.3125 -3 5 C-2.34 10.94 -1.68 16.88 -1 23 C0.98 23.33 2.96 23.66 5 24 C5 24.33 5 24.66 5 25 C3.35 25.33 1.7 25.66 0 26 C0.33 27.32 0.66 28.64 1 30 C0.34 30 -0.32 30 -1 30 C-1.33 29.34 -1.66 28.68 -2 28 C-4.01669827 26.86649466 -4.01669827 26.86649466 -6 26 C-4.68 26 -3.36 26 -2 26 C-2.33 25.236875 -2.66 24.47375 -3 23.6875 C-4.33945668 18.74825349 -4.16287658 14.08536891 -4 9 C-5.65 9.66 -7.3 10.32 -9 11 C-8.67 12.32 -8.34 13.64 -8 15 C-10.31 14.01 -12.62 13.02 -15 12 C-15 11.34 -15 10.68 -15 10 C-13.88625 9.896875 -12.7725 9.79375 -11.625 9.6875 C-10.42875 9.460625 -9.2325 9.23375 -8 9 C-6.84935451 7.27403177 -5.70169026 5.54605039 -4.5625 3.8125 C-4.046875 3.214375 -3.53125 2.61625 -3 2 C-2.01 2 -1.02 2 0 2 C0 1.34 0 0.68 0 0 Z " fill="#F6DFCB" transform="translate(108,140)"/>
<path d="M0 0 C1.98 0 3.96 0 6 0 C6 2.31 6 4.62 6 7 C7.98 7.99 9.96 8.98 12 10 C12 10.99 12 11.98 12 13 C9.36 12.67 6.72 12.34 4 12 C4 13.65 4 15.3 4 17 C7.63 17 11.26 17 15 17 C15 17.33 15 17.66 15 18 C11.04 18 7.08 18 3 18 C2.67 16.68 2.34 15.36 2 14 C0.02 14.99 0.02 14.99 -2 16 C-1.67257813 15.29488281 -1.34515625 14.58976563 -1.0078125 13.86328125 C0.08400722 10.76132833 0.20385396 8.45993947 0.125 5.1875 C0.10695313 4.21167969 0.08890625 3.23585937 0.0703125 2.23046875 C0.04710938 1.49441406 0.02390625 0.75835937 0 0 Z " fill="#F0D5BF" transform="translate(81,147)"/>
<path d="M0 0 C4.62 0 9.24 0 14 0 C14 0.66 14 1.32 14 2 C12 3.5 12 3.5 10 5 C10 5.66 10 6.32 10 7 C10.66 7 11.32 7 12 7 C11.69188262 9.45895618 11.37871012 11.91708307 11.0625 14.375 C10.93198242 15.42300781 10.93198242 15.42300781 10.79882812 16.4921875 C10.11328125 21.7734375 10.11328125 21.7734375 9 24 C8.34 24 7.68 24 7 24 C7.16242188 23.43410156 7.32484375 22.86820313 7.4921875 22.28515625 C8.01594279 19.92825745 8.13315862 17.84837338 8.125 15.4375 C8.12757813 14.67308594 8.13015625 13.90867188 8.1328125 13.12109375 C8.07907384 10.81001505 8.07907384 10.81001505 7 8 C4.89415562 7.19436362 4.89415562 7.19436362 2.4375 6.8125 C1.61121094 6.65394531 0.78492187 6.49539062 -0.06640625 6.33203125 C-0.70449219 6.22246094 -1.34257813 6.11289063 -2 6 C-1.67 5.34 -1.34 4.68 -1 4 C1.97 4 4.94 4 8 4 C8 3.34 8 2.68 8 2 C6.576875 2.061875 6.576875 2.061875 5.125 2.125 C2 2 2 2 0 0 Z " fill="#FAEBDF" transform="translate(121,164)"/>
<path d="M0 0 C4.875 0.875 4.875 0.875 6 2 C6.04063832 3.66617115 6.042721 5.33388095 6 7 C6.969375 7.061875 7.93875 7.12375 8.9375 7.1875 C13.88225603 7.85625799 17.81116224 10.42590696 22 13 C22 13.66 22 14.32 22 15 C22.639375 15.28875 23.27875 15.5775 23.9375 15.875 C26 17 26 17 27 19 C22.74112367 18.61282942 20.43222727 16.88721814 17.10546875 14.32421875 C13.77762253 12.23119488 10.11519451 11.26615236 6.35546875 10.1875 C4 9 4 9 2.67578125 6.375 C2.45277344 5.59125 2.22976562 4.8075 2 4 C1.01 4.33 0.02 4.66 -1 5 C-0.67 3.35 -0.34 1.7 0 0 Z " fill="#E0B36A" transform="translate(112,55)"/>
<path d="M0 0 C2.24940295 -0.08119503 4.49964871 -0.13927819 6.75 -0.1875 C8.00296875 -0.22230469 9.2559375 -0.25710937 10.546875 -0.29296875 C14.16774286 0.01423158 15.58243984 0.32448677 18 3 C18.72508429 5.88320917 18.33638076 7.97257312 18 11 C17.01 11.66 16.02 12.32 15 13 C15.03480469 12.37351563 15.06960937 11.74703125 15.10546875 11.1015625 C15.13253906 10.28429687 15.15960938 9.46703125 15.1875 8.625 C15.22230469 7.81289062 15.25710937 7.00078125 15.29296875 6.1640625 C15.19628906 5.44992188 15.09960938 4.73578125 15 4 C11.71508627 1.81005752 10.16904361 1.64722661 6.3125 1.375 C5.31863281 1.30023438 4.32476562 1.22546875 3.30078125 1.1484375 C2.54152344 1.09945312 1.78226563 1.05046875 1 1 C1.01160156 1.70125 1.02320313 2.4025 1.03515625 3.125 C1.08971184 8.86113102 0.85618377 14.32778253 0 20 C0.99 19.67 1.98 19.34 3 19 C3.33 18.01 3.66 17.02 4 16 C4.66 16.33 5.32 16.66 6 17 C5.67 18.98 5.34 20.96 5 23 C2.69 23 0.38 23 -2 23 C-1.85823579 20.29139876 -1.71171784 17.58319248 -1.5625 14.875 C-1.50352539 13.73417969 -1.50352539 13.73417969 -1.44335938 12.5703125 C-1.20490998 8.31490797 -0.79769763 4.19629174 0 0 Z " fill="#DA9E79" transform="translate(45,141)"/>
<path d="M0 0 C3.63 0 7.26 0 11 0 C11.33 1.65 11.66 3.3 12 5 C6.375 7 6.375 7 3 7 C3 6.01 3 5.02 3 4 C2.01 4.66 1.02 5.32 0 6 C0.33 7.98 0.66 9.96 1 12 C-0.32 11.67 -1.64 11.34 -3 11 C-3 8.36 -3 5.72 -3 3 C-2.01 2.67 -1.02 2.34 0 2 C0 1.34 0 0.68 0 0 Z " fill="#DE8C65" transform="translate(82,170)"/>
<path d="M0 0 C13.2 0 26.4 0 40 0 C40 0.33 40 0.66 40 1 C36.37 1 32.74 1 29 1 C29 1.99 29 2.98 29 4 C23.62915894 4.68201156 18.41499441 5.11521265 13 5 C13 3.68 13 2.36 13 1 C8.71 1 4.42 1 0 1 C0 0.67 0 0.34 0 0 Z " fill="#FCEED9" transform="translate(85,100)"/>
<path d="M0 0 C1.6794132 3.3588264 0.99614889 5.42558341 0 9 C-6.27913502 16.44526009 -13.12606049 18.01939732 -22.4140625 19.2421875 C-25.8223447 18.92298282 -26.86605725 17.57475721 -29 15 C-28.20335938 15.02320312 -27.40671875 15.04640625 -26.5859375 15.0703125 C-18.60142308 15.2273207 -18.60142308 15.2273207 -11 13 C-10.0925 12.731875 -9.185 12.46375 -8.25 12.1875 C-5.2390974 10.59841252 -5.08302902 9.17688512 -4 6 C-2.70211044 3.97681922 -1.37535339 1.97133986 0 0 Z " fill="#E1A64F" transform="translate(129,108)"/>
<path d="M0 0 C8.57142857 1 8.57142857 1 12 2 C12.33 1.34 12.66 0.68 13 0 C13.495 2.475 13.495 2.475 14 5 C-5.8 5 -25.6 5 -46 5 C-46.33 5.99 -46.66 6.98 -47 8 C-47 5.69 -47 3.38 -47 1 C-46.67 1.99 -46.34 2.98 -46 4 C-28.51 4 -11.02 4 7 4 C7 3.34 7 2.68 7 2 C4.69 1.67 2.38 1.34 0 1 C0 0.67 0 0.34 0 0 Z " fill="#E4C080" transform="translate(132,80)"/>
<path d="M0 0 C3.375 -0.125 3.375 -0.125 7 0 C7.66 0.66 8.32 1.32 9 2 C6 2 6 2 1 1 C1.33 7.27 1.66 13.54 2 20 C3.98 20.66 5.96 21.32 8 22 C8 22.33 8 22.66 8 23 C5.125 23.125 5.125 23.125 2 23 C0 21 0 21 -0.1953125 19.0546875 C-0.09765625 16.02734375 -0.09765625 16.02734375 0 13 C-0.66 13 -1.32 13 -2 13 C-2 15.31 -2 17.62 -2 20 C-2.66 20 -3.32 20 -4 20 C-3.98839844 18.94039062 -3.97679687 17.88078125 -3.96484375 16.7890625 C-3.95546524 15.40104342 -3.94636511 14.01302245 -3.9375 12.625 C-3.92912109 11.92632812 -3.92074219 11.22765625 -3.91210938 10.5078125 C-3.8164558 6.62704624 -3.8164558 6.62704624 -5 3 C-4.360625 2.87625 -3.72125 2.7525 -3.0625 2.625 C-2.0415625 2.315625 -2.0415625 2.315625 -1 2 C-0.67 1.34 -0.34 0.68 0 0 Z " fill="#FCECDD" transform="translate(140,143)"/>
<path d="M0 0 C1.32 0.33 2.64 0.66 4 1 C3.67 7.27 3.34 13.54 3 20 C2.34 20 1.68 20 1 20 C1 18.35 1 16.7 1 15 C-3.23084903 16.68807908 -3.23084903 16.68807908 -6 20 C-7.32 19.67 -8.64 19.34 -10 19 C-9.071875 18.29875 -8.14375 17.5975 -7.1875 16.875 C-1.62113191 12.18822309 -0.59919076 6.95061283 0 0 Z " fill="#F8E4D2" transform="translate(158,145)"/>
<path d="M0 0 C0.66 0.66 1.32 1.32 2 2 C1.67 2.66 1.34 3.32 1 4 C0.77532169 5.53668865 0.59203195 7.07968054 0.4375 8.625 C0.35371094 9.44226563 0.26992187 10.25953125 0.18359375 11.1015625 C0.12300781 11.72804687 0.06242187 12.35453125 0 13 C1.32 13 2.64 13 4 13 C4 14.32 4 15.64 4 17 C1.66705225 17.04241723 -0.66702567 17.04092937 -3 17 C-4 16 -4 16 -4.09765625 12.62109375 C-4.09098369 11.22652923 -4.07902532 9.83198257 -4.0625 8.4375 C-4.05798828 7.72658203 -4.05347656 7.01566406 -4.04882812 6.28320312 C-4.03700864 4.52209987 -4.01907263 2.76103964 -4 1 C-2.125 0.375 -2.125 0.375 0 0 Z " fill="#EF7C47" transform="translate(111,146)"/>
<path d="M0 0 C0.495 1.485 0.495 1.485 1 3 C0.67 3.66 0.34 4.32 0 5 C-0.99 5 -1.98 5 -3 5 C-3 5.66 -3 6.32 -3 7 C-10.02759677 8.67468408 -16.60897156 9.27512273 -23.8203125 9.1953125 C-24.80498505 9.1924826 -25.78965759 9.18965271 -26.8041687 9.18673706 C-29.91124261 9.17565195 -33.01801504 9.15056991 -36.125 9.125 C-38.24739163 9.11495509 -40.36978784 9.1058319 -42.4921875 9.09765625 C-47.66157231 9.07575099 -52.83073526 9.04130328 -58 9 C-58.33 8.34 -58.66 7.68 -59 7 C-57.68918457 7.01571045 -56.37836914 7.0314209 -55.02783203 7.04760742 C-50.12636553 7.10224495 -45.22492552 7.13647241 -40.32324219 7.16479492 C-38.2089382 7.17980487 -36.09466493 7.2002192 -33.98046875 7.22631836 C-30.92700579 7.26304633 -27.87395743 7.27980474 -24.8203125 7.29296875 C-23.88760529 7.30845261 -22.95489807 7.32393646 -21.993927 7.33988953 C-15.52527905 7.34151781 -10.08484301 6.15456408 -4 4 C-3.01 3.67 -2.02 3.34 -1 3 C-0.67 2.01 -0.34 1.02 0 0 Z " fill="#FCECCA" transform="translate(139,127)"/>
<path d="M0 0 C1.32 0.33 2.64 0.66 4 1 C3.01 1.495 3.01 1.495 2 2 C1.53476937 3.89533342 1.53476937 3.89533342 1.375 6.0625 C1.189375 8.0115625 1.189375 8.0115625 1 10 C3.31 10.66 5.62 11.32 8 12 C8 12.66 8 13.32 8 14 C5.36 14 2.72 14 0 14 C0 15.65 0 17.3 0 19 C3.63 19 7.26 19 11 19 C9 21 9 21 6.6875 21.23046875 C5.800625 21.21628906 4.91375 21.20210937 4 21.1875 C2.6696875 21.17783203 2.6696875 21.17783203 1.3125 21.16796875 C-1 21 -1 21 -3 20 C-2.67 17.69 -2.34 15.38 -2 13 C-1.34 13 -0.68 13 0 13 C0 8.71 0 4.42 0 0 Z " fill="#F6E0CB" transform="translate(78,171)"/>
<path d="M0 0 C3 1 3 1 4.66796875 4.0078125 C6.34304586 8.29889833 6.41733977 12.31591261 6.3125 16.875 C6.3026709 17.66712891 6.2928418 18.45925781 6.28271484 19.27539062 C5.9801096 33.0198904 5.9801096 33.0198904 2 37 C-0.125 36.625 -0.125 36.625 -2 36 C-1.67 35.34 -1.34 34.68 -1 34 C0.32 34 1.64 34 3 34 C3.08755672 29.64596135 3.14057969 25.29215123 3.1875 20.9375 C3.21263672 19.70837891 3.23777344 18.47925781 3.26367188 17.21289062 C3.31631874 10.70222829 3.23999169 5.72313493 0 0 Z " fill="#F9E9C5" transform="translate(83,26)"/>
<path d="M0 0 C6.0546875 -0.1953125 6.0546875 -0.1953125 8 0 C10 2 10 2 10.23046875 4.49609375 C10.20919922 5.95208984 10.20919922 5.95208984 10.1875 7.4375 C10.17783203 8.88962891 10.17783203 8.88962891 10.16796875 10.37109375 C10 13 10 13 9 16 C8.01 16 7.02 16 6 16 C5.67 12.04 5.34 8.08 5 4 C2.525 3.01 2.525 3.01 0 2 C0 1.34 0 0.68 0 0 Z " fill="#ED7E4B" transform="translate(125,146)"/>
<path d="M0 0 C8.96114698 0.17987704 17.03132232 1.85028827 25.65820312 4.12060547 C32.07483494 5.80343477 38.42094937 7.10407237 45 8 C45 8.33 45 8.66 45 9 C38.65304818 9.18889738 33.1529623 8.6311939 27 7.125 C26.2575 6.95097656 25.515 6.77695313 24.75 6.59765625 C23.25597505 6.24749415 21.76255724 5.89473089 20.26977539 5.53930664 C17.90931248 4.97845233 15.54820782 4.42202061 13.18359375 3.87890625 C12.12096313 3.6324939 12.12096313 3.6324939 11.03686523 3.38110352 C7.26145851 2.67471374 3.4860579 2.25697105 0 4 C0 2.68 0 1.36 0 0 Z " fill="#FBECCB" transform="translate(87,72)"/>
<path d="M0 0 C1.22589844 0.01353516 1.22589844 0.01353516 2.4765625 0.02734375 C3.41628906 0.04474609 3.41628906 0.04474609 4.375 0.0625 C4.375 1.7125 4.375 3.3625 4.375 5.0625 C3.385 5.0625 2.395 5.0625 1.375 5.0625 C1.045 6.0525 0.715 7.0425 0.375 8.0625 C-1.935 7.7325 -4.245 7.4025 -6.625 7.0625 C-6.625 5.0825 -6.625 3.1025 -6.625 1.0625 C-4.21954362 -0.14022819 -2.67503047 -0.03821472 0 0 Z " fill="#F07D44" transform="translate(107.625,105.9375)"/>
<path d="M0 0 C1.75 0.1875 1.75 0.1875 4 1 C4.61875 1.78375 5.2375 2.5675 5.875 3.375 C8.46082613 6.5692558 10.15070918 7.52443852 14 9 C17.46919152 9.34856876 20.8929765 9.28436085 24.375 9.1875 C25.30183594 9.17396484 26.22867188 9.16042969 27.18359375 9.14648438 C29.45633998 9.11133881 31.72785847 9.06214132 34 9 C33.67 9.66 33.34 10.32 33 11 C28.74654164 12.31616447 24.51223324 12.02061439 20.125 11.75 C19.44308594 11.72292969 18.76117188 11.69585937 18.05859375 11.66796875 C12.49048813 11.33918537 7.56581422 10.21618679 3.22265625 6.46484375 C0 2.22222222 0 2.22222222 0 0 Z " fill="#E7BF7E" transform="translate(84,112)"/>
<path d="M0 0 C1.32 0.33 2.64 0.66 4 1 C4 4.96 4 8.92 4 13 C4.99 13 5.98 13 7 13 C7 14.32 7 15.64 7 17 C5.34385343 17.38218767 3.67542976 17.71395102 2 18 C-0.11925604 15.88074396 0.58168983 11.3803907 0.4375 8.4375 C0.39431641 7.63119141 0.35113281 6.82488281 0.30664062 5.99414062 C0.20024738 3.99631195 0.09959112 1.9981793 0 0 Z " fill="#E7814E" transform="translate(142,146)"/>
<path d="M0 0 C0.33 0 0.66 0 1 0 C1 2.31 1 4.62 1 7 C15.85 7 30.7 7 46 7 C46 6.34 46 5.68 46 5 C48.31 5.33 50.62 5.66 53 6 C53 6.66 53 7.32 53 8 C35.51 8 18.02 8 0 8 C0 5.36 0 2.72 0 0 Z " fill="#FAE5BC" transform="translate(86,76)"/>
<path d="M0 0 C3.53676324 3.06519481 5.00060047 5.41941881 6 10 C6.38337865 16.41913481 5.95807999 22.65272005 5 29 C4.67 29 4.34 29 4 29 C3.67 21.41 3.34 13.82 3 6 C2.34 6 1.68 6 1 6 C1.33 6.99 1.66 7.98 2 9 C2.068991 11.06145107 2.08467727 13.12501401 2.0625 15.1875 C2.05347656 16.27417969 2.04445313 17.36085938 2.03515625 18.48046875 C2.02355469 19.31191406 2.01195313 20.14335938 2 21 C1.67 21 1.34 21 1 21 C0.92652344 19.91332031 0.92652344 19.91332031 0.8515625 18.8046875 C0.44793848 13.58541133 -0.01275807 8.90186342 -2 4 C-1.01 4 -0.02 4 1 4 C0.67 2.68 0.34 1.36 0 0 Z " fill="#DEB97B" transform="translate(88,24)"/>
<path d="M0 0 C0 0.99 0 1.98 0 3 C-2.11424367 3.23870493 -4.22864206 3.47610966 -6.34375 3.70703125 C-8.13631932 3.9047411 -9.92799893 4.11066654 -11.71875 4.32421875 C-12.5953125 4.42347656 -13.471875 4.52273437 -14.375 4.625 C-15.18710938 4.72039063 -15.99921875 4.81578125 -16.8359375 4.9140625 C-19 5 -19 5 -22 4 C-23.69514137 4.95093297 -25.36368108 5.95107762 -27 7 C-27.66 7 -28.32 7 -29 7 C-29 7.66 -29 8.32 -29 9 C-29.99 9 -30.98 9 -32 9 C-32 8.01 -32 7.02 -32 6 C-31.01 6 -30.02 6 -29 6 C-29 5.34 -29 4.68 -29 4 C-25.38653124 2.36461503 -22.47203113 1.72757024 -18.515625 1.62109375 C-17.49855469 1.58693359 -16.48148438 1.55277344 -15.43359375 1.51757812 C-14.38300781 1.49115234 -13.33242187 1.46472656 -12.25 1.4375 C-10.15091949 1.37785261 -8.05194574 1.314272 -5.953125 1.24609375 C-5.02661133 1.22216553 -4.10009766 1.1982373 -3.14550781 1.17358398 C-1.01874211 1.23466915 -1.01874211 1.23466915 0 0 Z " fill="#E6A443" transform="translate(112,59)"/>
<path d="M0 0 C0 0.99 0 1.98 0 3 C-0.66 3 -1.32 3 -2 3 C-2 6.96 -2 10.92 -2 15 C-1.34 15 -0.68 15 0 15 C0 15.66 0 16.32 0 17 C-1.66611905 17.042721 -3.33382885 17.04063832 -5 17 C-6 16 -6 16 -6.09765625 12.62109375 C-6.09098369 11.22652923 -6.07902532 9.83198257 -6.0625 8.4375 C-6.05798828 7.72658203 -6.05347656 7.01566406 -6.04882812 6.28320312 C-6.03700864 4.52209987 -6.01907263 2.76103964 -6 1 C-4 0 -4 0 0 0 Z " fill="#F27C45" transform="translate(106,171)"/>
<path d="M0 0 C1.2065625 0.0309375 1.2065625 0.0309375 2.4375 0.0625 C2.5625 6.8125 2.5625 6.8125 1.4375 9.0625 C2.7575 9.3925 4.0775 9.7225 5.4375 10.0625 C3.4375 12.0625 3.4375 12.0625 0.3125 12.1875 C-0.63625 12.14625 -1.585 12.105 -2.5625 12.0625 C-1.9025 11.0725 -1.2425 10.0825 -0.5625 9.0625 C-1.8825 8.7325 -3.2025 8.4025 -4.5625 8.0625 C-3.54737544 0.08652135 -3.54737544 0.08652135 0 0 Z " fill="#E29C72" transform="translate(54.5625,144.9375)"/>
<path d="M0 0 C2.375 -0.125 2.375 -0.125 5 0 C7.58926331 2.58926331 7.37398043 4.02705279 7.625 7.625 C7.69976562 8.62789062 7.77453125 9.63078125 7.8515625 10.6640625 C7.92503906 11.82035156 7.92503906 11.82035156 8 13 C7.01 13.495 7.01 13.495 6 14 C6 10.37 6 6.74 6 3 C4.35 2.67 2.7 2.34 1 2 C1.22744809 4.79521729 1.48074964 7.58377125 1.75 10.375 C1.811875 11.1690625 1.87375 11.963125 1.9375 12.78125 C2.15632268 14.93300639 2.38920487 16.92444902 3 19 C4.92371941 20.63458569 4.92371941 20.63458569 7 21 C4.625 21.125 4.625 21.125 2 21 C0 19 0 19 -0.22705078 17.02880859 C-0.21657715 16.24328613 -0.20610352 15.45776367 -0.1953125 14.6484375 C-0.18886719 13.79765625 -0.18242187 12.946875 -0.17578125 12.0703125 C-0.15902344 11.18085938 -0.14226562 10.29140625 -0.125 9.375 C-0.11597656 8.4778125 -0.10695312 7.580625 -0.09765625 6.65625 C-0.0740497 4.43723414 -0.0411231 2.21874923 0 0 Z " fill="#DDA787" transform="translate(141,144)"/>
<path d="M0 0 C2.10317737 4.20635475 0.91853267 9.83349382 0.75 14.4375 C0.72292969 15.59572266 0.69585937 16.75394531 0.66796875 17.94726562 C0.62800781 19.05650391 0.58804688 20.16574219 0.546875 21.30859375 C0.51432617 22.32751709 0.48177734 23.34644043 0.44824219 24.39624023 C-0.0638865 27.37110539 -0.73652255 28.10966574 -3 30 C-4.03357147 31.64605826 -5.04060332 33.30963442 -6 35 C-6.99 34.67 -7.98 34.34 -9 34 C-8.57847656 33.30132812 -8.15695313 32.60265625 -7.72265625 31.8828125 C-7.17480469 30.97273438 -6.62695312 30.06265625 -6.0625 29.125 C-5.24458984 27.76761719 -5.24458984 27.76761719 -4.41015625 26.3828125 C-2.42488415 23.0281976 -1.85500957 21.12767967 -1.71875 17.24609375 C-1.68136719 16.30958984 -1.64398438 15.37308594 -1.60546875 14.40820312 C-1.53501774 12.42383304 -1.46470578 10.43945801 -1.39453125 8.45507812 C-1.35714844 7.51986328 -1.31976563 6.58464844 -1.28125 5.62109375 C-1.23581055 4.32836548 -1.23581055 4.32836548 -1.18945312 3.00952148 C-1 1 -1 1 0 0 Z " fill="#F8E7C5" transform="translate(149,92)"/>
<path d="M0 0 C0.33 1.32 0.66 2.64 1 4 C-4.75 6 -4.75 6 -7 6 C-7.33 6.99 -7.66 7.98 -8 9 C-8.12375 8.360625 -8.2475 7.72125 -8.375 7.0625 C-8.684375 6.0415625 -8.684375 6.0415625 -9 5 C-9.66 4.67 -10.32 4.34 -11 4 C-11 3.34 -11 2.68 -11 2 C-7.36576791 -0.32590854 -4.22911669 -0.16265833 0 0 Z " fill="#DEB065" transform="translate(157,84)"/>
<path d="M0 0 C1.98 0.495 1.98 0.495 4 1 C3.67 5.62 3.34 10.24 3 15 C1.68 15 0.36 15 -1 15 C-0.67 10.05 -0.34 5.1 0 0 Z " fill="#EB7D4E" transform="translate(163,148)"/>
<path d="M0 0 C1.65 0 3.3 0 5 0 C5.28571429 7.42857143 5.28571429 7.42857143 3 11 C0.36 11 -2.28 11 -5 11 C-5 9.68 -5 8.36 -5 7 C-2.69 7.33 -0.38 7.66 2 8 C1.34 5.36 0.68 2.72 0 0 Z " fill="#FBFAE9" transform="translate(77,71)"/>
<path d="M0 0 C0.66 0 1.32 0 2 0 C2.103125 0.928125 2.20625 1.85625 2.3125 2.8125 C3.63277105 6.17481067 3.63277105 6.17481067 6.40625 6.85546875 C8.36609506 7.29011181 10.3270693 7.7196902 12.2890625 8.14453125 C16.37682523 9.43447367 17.72305428 11.46680837 20 15 C19.67 15.66 19.34 16.32 19 17 C18.01 16.34 17.02 15.68 16 15 C16 14.34 16 13.68 16 13 C15.071875 12.71125 14.14375 12.4225 13.1875 12.125 C10 11 10 11 7 9 C4.67891331 8.29187186 2.34622853 7.61975848 0 7 C0 4.69 0 2.38 0 0 Z " fill="#FAF0D4" transform="translate(118,55)"/>
<path d="M0 0 C0.33 1.32 0.66 2.64 1 4 C-1.63904371 5.41377341 -4.07120629 6.37240135 -7 7 C-7 7.99 -7 8.98 -7 10 C-9.1875 11.75 -9.1875 11.75 -12 13 C-14.8125 12.6875 -14.8125 12.6875 -17 12 C-17 11.34 -17 10.68 -17 10 C-14.69 10 -12.38 10 -10 10 C-10.020625 9.030625 -10.04125 8.06125 -10.0625 7.0625 C-10 4 -10 4 -9 3 C-7.2984375 2.7834375 -7.2984375 2.7834375 -5.5625 2.5625 C-1.95941003 2.35152449 -1.95941003 2.35152449 0 0 Z " fill="#FAE4D4" transform="translate(60,154)"/>
<path d="M0 0 C1.21236328 0.01353516 1.21236328 0.01353516 2.44921875 0.02734375 C3.37154297 0.04474609 3.37154297 0.04474609 4.3125 0.0625 C4.69468767 1.71864657 5.02645102 3.38707024 5.3125 5.0625 C4.3125 6.0625 4.3125 6.0625 1.25 6.125 C0.280625 6.104375 -0.68875 6.08375 -1.6875 6.0625 C-1.6875 5.7325 -1.6875 5.4025 -1.6875 5.0625 C-0.0375 5.0625 1.6125 5.0625 3.3125 5.0625 C3.3125 4.0725 3.3125 3.0825 3.3125 2.0625 C0.0125 2.7225 -3.2875 3.3825 -6.6875 4.0625 C-6.6875 6.3725 -6.6875 8.6825 -6.6875 11.0625 C-7.6775 10.7325 -8.6675 10.4025 -9.6875 10.0625 C-9.9375 4.4375 -9.9375 4.4375 -7.6875 1.0625 C-4.80538698 0.10179566 -2.98899956 -0.04331883 0 0 Z " fill="#D7926E" transform="translate(95.6875,143.9375)"/>
<path d="M0 0 C2 2 2 2 2 6 C-4.75 6.125 -4.75 6.125 -7 5 C-7 3.35 -7 1.7 -7 0 C-4.29393021 -1.35303489 -2.8671629 -0.7884698 0 0 Z " fill="#D4C982" transform="translate(68,73)"/>
<path d="M0 0 C0.33 0.66 0.66 1.32 1 2 C2.86309092 2.4279618 2.86309092 2.4279618 5 2.5625 C8.90410959 2.90410959 8.90410959 2.90410959 10 4 C10.04063832 5.66617115 10.042721 7.33388095 10 9 C9.01 9.495 9.01 9.495 8 10 C8 8.02 8 6.04 8 4 C6.68 4.33 5.36 4.66 4 5 C4 6.65 4 8.3 4 10 C2.35 9.67 0.7 9.34 -1 9 C-0.67 6.03 -0.34 3.06 0 0 Z " fill="#F5E4BB" transform="translate(74,67)"/>
<path d="M0 0 C1.98 0 3.96 0 6 0 C6 2.97 6 5.94 6 9 C3 9 3 9 0 8 C0 5.36 0 2.72 0 0 Z " fill="#FCF4EB" transform="translate(106,176)"/>
<path d="M0 0 C0.350625 0.61875 0.70125 1.2375 1.0625 1.875 C3.68789988 4.75447084 6.27639736 5.10357714 10 6 C11 7 11 7 11.11352539 9.13305664 C11.10828857 10.04949951 11.10305176 10.96594238 11.09765625 11.91015625 C11.09443359 12.89951172 11.09121094 13.88886719 11.08789062 14.90820312 C11.07951172 15.94912109 11.07113281 16.99003906 11.0625 18.0625 C11.05798828 19.10728516 11.05347656 20.15207031 11.04882812 21.22851562 C11.03699913 23.8190666 11.02051689 26.40950559 11 29 C10.67 29 10.34 29 10 29 C10 22.07 10 15.14 10 8 C7.36 7.67 4.72 7.34 2 7 C-0.0625 5.6875 -0.0625 5.6875 -1 4 C-0.6875 1.8125 -0.6875 1.8125 0 0 Z " fill="#FAE8CB" transform="translate(51,85)"/>
<path d="M0 0 C0.33 0 0.66 0 1 0 C1.33 3.3 1.66 6.6 2 10 C2.66 7.69 3.32 5.38 4 3 C4.33 3 4.66 3 5 3 C4.67 5.97 4.34 8.94 4 12 C6.99332739 11.0022242 7.94766315 10.2477975 10 8 C8.70306052 11.89081843 7.29300888 14.48181674 4 17 C1.75 16.75 1.75 16.75 0 16 C0.99 16 1.98 16 3 16 C3 14.68 3 13.36 3 12 C2.01 12 1.02 12 0 12 C0 8.04 0 4.08 0 0 Z " fill="#DD956C" transform="translate(146,147)"/>
<path d="M0 0 C5.49805447 -0.36653696 5.49805447 -0.36653696 7.6796875 1.2265625 C9.35710949 3.47966777 9.37211584 4.77889863 9.3125 7.5625 C9.30863281 8.34753906 9.30476562 9.13257813 9.30078125 9.94140625 C9 12 9 12 7 14 C7.01160156 13.37351563 7.02320313 12.74703125 7.03515625 12.1015625 C7.04869141 10.87566406 7.04869141 10.87566406 7.0625 9.625 C7.07410156 8.81289062 7.08570313 8.00078125 7.09765625 7.1640625 C7.14466334 4.95062858 7.14466334 4.95062858 6 3 C5.87625 4.134375 5.7525 5.26875 5.625 6.4375 C5.41875 7.613125 5.2125 8.78875 5 10 C4.01 10.495 4.01 10.495 3 11 C2.8046875 9.01432292 2.609375 7.02864583 2.4140625 5.04296875 C2.07334609 2.70011858 2.07334609 2.70011858 0 0 Z " fill="#DF875F" transform="translate(121,172)"/>
<path d="M0 0 C3.625 -0.1875 3.625 -0.1875 7 0 C5.68 0.33 4.36 0.66 3 1 C3 2.32 3 3.64 3 5 C3.99 5.66 4.98 6.32 6 7 C5.67 7.66 5.34 8.32 5 9 C3.02 9 1.04 9 -1 9 C-1.625 6.1875 -1.625 6.1875 -2 3 C-1.34 2.01 -0.68 1.02 0 0 Z " fill="#D58C61" transform="translate(123,154)"/>
<path d="M0 0 C0 0.66 0 1.32 0 2 C0.99 2.33 1.98 2.66 3 3 C3 3.66 3 4.32 3 5 C2.34 5 1.68 5 1 5 C1 4.34 1 3.68 1 3 C-2.96 3 -6.92 3 -11 3 C-11.66 4.65 -12.32 6.3 -13 8 C-13.66 7.67 -14.32 7.34 -15 7 C-15 5.35 -15 3.7 -15 2 C-14.01 2 -13.02 2 -12 2 C-12 1.34 -12 0.68 -12 0 C-7.66726186 -0.92844389 -4.33273814 -0.92844389 0 0 Z " fill="#F7EFD7" transform="translate(85,18)"/>
<path d="M0 0 C0.66 0 1.32 0 2 0 C2.33 1.65 2.66 3.3 3 5 C3.78246094 4.98839844 4.56492188 4.97679688 5.37109375 4.96484375 C6.38300781 4.95582031 7.39492187 4.94679688 8.4375 4.9375 C9.44683594 4.92589844 10.45617187 4.91429688 11.49609375 4.90234375 C14 5 14 5 15 6 C15.04063832 7.66617115 15.042721 9.33388095 15 11 C10.56923077 13.09230769 10.56923077 13.09230769 7.6875 12.625 C7.130625 12.41875 6.57375 12.2125 6 12 C8.31 11.34 10.62 10.68 13 10 C13 9.01 13 8.02 13 7 C9.03611362 6.92377142 5.8726592 7.0318352 2 8 C1.34 5.36 0.68 2.72 0 0 Z " fill="#F3E4C1" transform="translate(144,78)"/>
<path d="M0 0 C1.30660357 4.29727397 0.6596762 7.60215865 0 12 C0.99 11.67 1.98 11.34 3 11 C3.33 10.01 3.66 9.02 4 8 C4.66 8.33 5.32 8.66 6 9 C5.67 10.98 5.34 12.96 5 15 C2.69 15 0.38 15 -2 15 C-2.22577402 9.5814234 -1.46670113 5.22512279 0 0 Z " fill="#D79371" transform="translate(45,149)"/>
<path d="M0 0 C0.66 0.495 1.32 0.99 2 1.5 C1.01 2.985 1.01 2.985 0 4.5 C-0.66 3.51 -1.32 2.52 -2 1.5 C-7.66714235 0.34390296 -12.04019107 1.71766816 -17 4.5 C-17.66 4.17 -18.32 3.84 -19 3.5 C-14.10207984 -2.17127598 -6.56652046 -3.28326023 0 0 Z " fill="#FBF3E5" transform="translate(102,143.5)"/>
<path d="M0 0 C0.33 0 0.66 0 1 0 C1 2.31 1 4.62 1 7 C1.66 7 2.32 7 3 7 C3 11.95 3 16.9 3 22 C2.67 22 2.34 22 2 22 C1.67 23.65 1.34 25.3 1 27 C0.67 27 0.34 27 0 27 C-0.19892707 23.81310715 -0.38204784 20.62548809 -0.5625 17.4375 C-0.61857422 16.54224609 -0.67464844 15.64699219 -0.73242188 14.72460938 C-1.01202594 9.63581532 -0.92865379 5.01473048 0 0 Z " fill="#F3E1B5" transform="translate(82,77)"/>
<path d="M0 0 C2.69082872 0.17635452 5.32851446 0.61835921 8 1 C8 1.33 8 1.66 8 2 C6.02 2.33 4.04 2.66 2 3 C1.67 3.99 1.34 4.98 1 6 C-4.61 6 -10.22 6 -16 6 C-15.67 4.68 -15.34 3.36 -15 2 C-15 2.99 -15 3.98 -15 5 C-10.71 5 -6.42 5 -2 5 C-1.67 3.68 -1.34 2.36 -1 1 C-0.67 0.67 -0.34 0.34 0 0 Z " fill="#FCFAEE" transform="translate(109,52)"/>
<path d="M0 0 C1.875 0.3125 1.875 0.3125 4 1 C6.80664069 5.20996104 7.1297726 8.88524688 7.09765625 13.86328125 C7.09282227 15.19262695 7.09282227 15.19262695 7.08789062 16.54882812 C7.07951172 17.46083984 7.07113281 18.37285156 7.0625 19.3125 C7.05798828 20.24384766 7.05347656 21.17519531 7.04882812 22.13476562 C7.03709234 24.42324373 7.02067363 26.71158808 7 29 C6.67 29 6.34 29 6 29 C5.94392578 27.19015625 5.94392578 27.19015625 5.88671875 25.34375 C5.82100781 23.72913822 5.75456229 22.11455622 5.6875 20.5 C5.66494141 19.70851563 5.64238281 18.91703125 5.61914062 18.1015625 C5.31034379 11.25188721 3.86237211 5.79355817 0 0 Z " fill="#FCF1D5" transform="translate(88,23)"/>
<path d="M0 0 C1.51953125 1.20703125 1.51953125 1.20703125 3 3 C3.07421875 5.26171875 3.07421875 5.26171875 2.6875 7.6875 C2.50767578 8.89986328 2.50767578 8.89986328 2.32421875 10.13671875 C2.21722656 10.75160156 2.11023438 11.36648437 2 12 C-0.64 12.33 -3.28 12.66 -6 13 C-5.195625 12.34 -4.39125 11.68 -3.5625 11 C-0.24851076 7.12020772 -0.25422975 4.99985175 0 0 Z " fill="#EA804C" transform="translate(126,174)"/>
<path d="M0 0 C2.0625 0.4375 2.0625 0.4375 4 1 C3.69188262 3.45895618 3.37871012 5.91708307 3.0625 8.375 C2.97548828 9.07367188 2.88847656 9.77234375 2.79882812 10.4921875 C2.11328125 15.7734375 2.11328125 15.7734375 1 18 C0.34 18 -0.32 18 -1 18 C-0.83757812 17.4328125 -0.67515625 16.865625 -0.5078125 16.28125 C0.01234091 13.94456082 0.13318559 11.89019234 0.125 9.5 C0.12886719 8.37078125 0.12886719 8.37078125 0.1328125 7.21875 C0.06941015 4.9776601 0.06941015 4.9776601 -0.5703125 2.78125 C-0.71210938 2.1934375 -0.85390625 1.605625 -1 1 C-0.67 0.67 -0.34 0.34 0 0 Z " fill="#F0D9C3" transform="translate(129,170)"/>
<path d="M0 0 C2.0625 0.4375 2.0625 0.4375 4 1 C4.125 6.75 4.125 6.75 3 9 C1.68 9 0.36 9 -1 9 C-1.09765625 2.84765625 -1.09765625 2.84765625 -1 1 C-0.67 0.67 -0.34 0.34 0 0 Z " fill="#F8CCB1" transform="translate(72,150)"/>
<path d="M0 0 C0.33 0 0.66 0 1 0 C1.05399736 1.45792884 1.09279177 2.91642712 1.125 4.375 C1.14820312 5.18710938 1.17140625 5.99921875 1.1953125 6.8359375 C1 9 1 9 -1 11 C-5.6730445 12.5576815 -10.23072805 11.6753871 -15 11 C-15 10.67 -15 10.34 -15 10 C-11.7 10 -8.4 10 -5 10 C-5 9.34 -5 8.68 -5 8 C-4.360625 7.566875 -3.72125 7.13375 -3.0625 6.6875 C-0.50072404 4.59150148 -0.34778436 3.21700528 0 0 Z " fill="#FBEAD8" transform="translate(101,155)"/>
<path d="M0 0 C1.32 0 2.64 0 4 0 C4 2.64 4 5.28 4 8 C5.65 8 7.3 8 9 8 C9.33 7.01 9.66 6.02 10 5 C10 6.32 10 7.64 10 9 C7.03 9 4.06 9 1 9 C1.33 8.01 1.66 7.02 2 6 C1.01 5.34 0.02 4.68 -1 4 C-0.67 2.68 -0.34 1.36 0 0 Z " fill="#E6B794" transform="translate(126,155)"/>
<path d="M0 0 C0 0.66 0 1.32 0 2 C-1.65 2.33 -3.3 2.66 -5 3 C-5.33 4.65 -5.66 6.3 -6 8 C-7.32 7.67 -8.64 7.34 -10 7 C-10.1875 4.625 -10.1875 4.625 -10 2 C-6.3558226 -0.4294516 -4.28758728 -0.16179575 0 0 Z " fill="#E97F4A" transform="translate(98,146)"/>
<path d="M0 0 C2.64 0 5.28 0 8 0 C7.01 0.495 7.01 0.495 6 1 C7 3.5 7 3.5 11 5 C7.37 5 3.74 5 0 5 C0 3.35 0 1.7 0 0 Z " fill="#D6966E" transform="translate(78,185)"/>
<path d="M0 0 C1.32 0 2.64 0 4 0 C4 2.31 4 4.62 4 7 C2.35 7.33 0.7 7.66 -1 8 C-1.04241723 5.66705225 -1.04092937 3.33297433 -1 1 C-0.67 0.67 -0.34 0.34 0 0 Z " fill="#FAE0C5" transform="translate(120,176)"/>
<path d="M0 0 C0.99 0.33 1.98 0.66 3 1 C2.67 4.63 2.34 8.26 2 12 C1.01 12 0.02 12 -1 12 C-1 12.66 -1 13.32 -1 14 C-1.66 14 -2.32 14 -3 14 C-2.5359375 12.7625 -2.5359375 12.7625 -2.0625 11.5 C-0.88122417 7.60873845 -0.41775832 4.03833047 0 0 Z " fill="#FBEEDE" transform="translate(158,145)"/>
<path d="M0 0 C7.45937249 -0.36685438 7.45937249 -0.36685438 9.75 1.1875 C11.43344122 3.62848976 11.30187345 5.25191481 11.1875 8.1875 C11.16042969 9.08855469 11.13335937 9.98960937 11.10546875 10.91796875 C11.07066406 11.60503906 11.03585938 12.29210937 11 13 C10.67 13 10.34 13 10 13 C10 10.03 10 7.06 10 4 C8.68 3.67 7.36 3.34 6 3 C5.67 3.66 5.34 4.32 5 5 C4.67 4.34 4.34 3.68 4 3 C1.47266765 2.34444881 1.47266765 2.34444881 -1 2 C-0.67 1.34 -0.34 0.68 0 0 Z " fill="#DA8E66" transform="translate(71,145)"/>
<path d="M0 0 C3.375 -0.125 3.375 -0.125 7 0 C7.66 0.66 8.32 1.32 9 2 C6.16032769 2 3.76264289 1.59732819 1 1 C1 3.64 1 6.28 1 9 C0.34 8.01 -0.32 7.02 -1 6 C-1.33 7.98 -1.66 9.96 -2 12 C-2.33 12 -2.66 12 -3 12 C-3.144375 10.88625 -3.28875 9.7725 -3.4375 8.625 C-3.78372035 5.17857953 -3.78372035 5.17857953 -5 3 C-4.360625 2.87625 -3.72125 2.7525 -3.0625 2.625 C-2.0415625 2.315625 -2.0415625 2.315625 -1 2 C-0.67 1.34 -0.34 0.68 0 0 Z " fill="#F7E3CF" transform="translate(140,143)"/>
<path d="M0 0 C0.33 0 0.66 0 1 0 C0.85758352 2.35441716 0.71115192 4.70847484 0.5625 7.0625 C0.48128906 8.37347656 0.40007813 9.68445313 0.31640625 11.03515625 C0.02101751 14.73663238 -0.43265388 18.33370448 -1 22 C-1.33 22 -1.66 22 -2 22 C-2.05401695 19.08308475 -2.09368066 16.16717276 -2.125 13.25 C-2.14175781 12.425 -2.15851562 11.6 -2.17578125 10.75 C-2.18222656 9.95078125 -2.18867187 9.1515625 -2.1953125 8.328125 C-2.20578613 7.5949707 -2.21625977 6.86181641 -2.22705078 6.10644531 C-1.96777544 3.70103924 -1.19225925 2.08748506 0 0 Z " fill="#F9E2CE" transform="translate(44,142)"/>
<path d="M0 0 C-0.33 0.99 -0.66 1.98 -1 3 C-1.14889747 4.84466442 -1.2479101 6.69357275 -1.31640625 8.54296875 C-1.35830078 9.61611328 -1.40019531 10.68925781 -1.44335938 11.79492188 C-1.48267578 12.91447266 -1.52199219 14.03402344 -1.5625 15.1875 C-1.60568359 16.31865234 -1.64886719 17.44980469 -1.69335938 18.61523438 C-1.79949099 21.41003354 -1.90154385 24.20492162 -2 27 C-2.33 27 -2.66 27 -3 27 C-3.33 18.42 -3.66 9.84 -4 1 C-2 0 -2 0 0 0 Z " fill="#E7A43E" transform="translate(67,88)"/>
<path d="M0 0 C1.98 0.495 1.98 0.495 4 1 C3.34 1 2.68 1 2 1 C1.18681933 3.8331836 0.8986245 6.28030923 0.97265625 9.22265625 C0.98490234 10.00833984 0.99714844 10.79402344 1.00976562 11.60351562 C1.0450075 13.24683117 1.08408875 14.89006874 1.12695312 16.53320312 C1.13791016 17.31759766 1.14886719 18.10199219 1.16015625 18.91015625 C1.17699463 19.62308838 1.19383301 20.33602051 1.21118164 21.07055664 C1 23 1 23 -1 26 C-1.02899599 22.22918278 -1.04679729 18.45839417 -1.0625 14.6875 C-1.07087891 13.61564453 -1.07925781 12.54378906 -1.08789062 11.43945312 C-1.09111328 10.41142578 -1.09433594 9.38339844 -1.09765625 8.32421875 C-1.10289307 7.37635498 -1.10812988 6.42849121 -1.11352539 5.4519043 C-1 3 -1 3 0 0 Z " fill="#FDF8EB" transform="translate(150,91)"/>
<path d="M0 0 C7.53216715 0.44238385 14.6802723 1.13905228 22 3 C22 3.33 22 3.66 22 4 C21.40461426 3.96447021 20.80922852 3.92894043 20.19580078 3.89233398 C17.50583226 3.73501206 14.81546083 3.58615438 12.125 3.4375 C11.18785156 3.38142578 10.25070313 3.32535156 9.28515625 3.26757812 C7.94130859 3.19506836 7.94130859 3.19506836 6.5703125 3.12109375 C5.74289551 3.0739624 4.91547852 3.02683105 4.06298828 2.97827148 C1.93489187 2.85015043 1.93489187 2.85015043 0 4 C0 2.68 0 1.36 0 0 Z " fill="#F0DCAB" transform="translate(87,72)"/>
<path d="M0 0 C0.66 0 1.32 0 2 0 C3.53266582 3.06533164 3.10276471 6.26754272 3.0625 9.625 C3.05798828 10.33140625 3.05347656 11.0378125 3.04882812 11.765625 C3.03703875 13.51045275 3.01910324 15.255237 3 17 C2.34 17.33 1.68 17.66 1 18 C0.67 12.06 0.34 6.12 0 0 Z " fill="#DBA352" transform="translate(89,30)"/>
<path d="M0 0 C1.23556641 0.01740234 1.23556641 0.01740234 2.49609375 0.03515625 C3.32238281 0.04417969 4.14867188 0.05320312 5 0.0625 C5.63808594 0.07410156 6.27617188 0.08570312 6.93359375 0.09765625 C6.93359375 0.42765625 6.93359375 0.75765625 6.93359375 1.09765625 C3.85742188 1.390625 3.85742188 1.390625 0.78125 1.68359375 C0.17152344 1.82023437 -0.43820313 1.956875 -1.06640625 2.09765625 C-1.39640625 2.75765625 -1.72640625 3.41765625 -2.06640625 4.09765625 C0.57359375 4.09765625 3.21359375 4.09765625 5.93359375 4.09765625 C6.26359375 4.75765625 6.59359375 5.41765625 6.93359375 6.09765625 C3.30359375 6.09765625 -0.32640625 6.09765625 -4.06640625 6.09765625 C-2.87403984 0.13582419 -2.87403984 0.13582419 0 0 Z " fill="#DEBE86" transform="translate(76.06640625,19.90234375)"/>
<path d="M0 0 C5.94 0 11.88 0 18 0 C18 0.33 18 0.66 18 1 C14.37 1 10.74 1 7 1 C7 1.99 7 2.98 7 4 C4.36 3.67 1.72 3.34 -1 3 C-0.67 2.01 -0.34 1.02 0 0 Z " fill="#FEF6DA" transform="translate(107,100)"/>
<path d="M0 0 C0.66 0.33 1.32 0.66 2 1 C1.67 1.66 1.34 2.32 1 3 C0.77532169 4.53668865 0.59203195 6.07968054 0.4375 7.625 C0.35371094 8.44226563 0.26992187 9.25953125 0.18359375 10.1015625 C0.12300781 10.72804687 0.06242187 11.35453125 0 12 C-0.99 11.67 -1.98 11.34 -3 11 C-3.08096803 9.54257537 -3.13917774 8.08387193 -3.1875 6.625 C-3.22230469 5.81289062 -3.25710937 5.00078125 -3.29296875 4.1640625 C-3.19628906 3.44992188 -3.09960938 2.73578125 -3 2 C-2.01 1.34 -1.02 0.68 0 0 Z " fill="#ED7C4C" transform="translate(118,174)"/>
<path d="M0 0 C1.32 0.33 2.64 0.66 4 1 C4.33 3.64 4.66 6.28 5 9 C1.375 12 1.375 12 -2 12 C-0.125 8.125 -0.125 8.125 1 7 C1.19149081 3.36805359 1.19149081 3.36805359 0 0 Z " fill="#F4DCCC" transform="translate(112,104)"/>
<path d="M0 0 C0.99 0.66 1.98 1.32 3 2 C3.1875 5.625 3.1875 5.625 3 9 C2.01 8.67 1.02 8.34 0 8 C-0.33 10.97 -0.66 13.94 -1 17 C-1.99 17 -2.98 17 -4 17 C-3.566875 15.8553125 -3.566875 15.8553125 -3.125 14.6875 C-1.65147772 9.8576214 -0.83206245 4.97467126 0 0 Z " fill="#DBAE69" transform="translate(89,45)"/>
<path d="M0 0 C0.33 0 0.66 0 1 0 C1.1875 2.875 1.1875 2.875 1 6 C0.01 6.66 -0.98 7.32 -2 8 C-2.73343428 11.06556598 -2.73343428 11.06556598 -3 14 C-3.99 14 -4.98 14 -6 14 C-5.67 11.36 -5.34 8.72 -5 6 C-3.35 5.67 -1.7 5.34 0 5 C0 3.35 0 1.7 0 0 Z " fill="#F8DDC7" transform="translate(118,145)"/>
<path d="M0 0 C1.98 0 3.96 0 6 0 C6.33 1.65 6.66 3.3 7 5 C5.02 5 3.04 5 1 5 C0.67 3.35 0.34 1.7 0 0 Z " fill="#D8AB61" transform="translate(52,84)"/>
<path d="M0 0 C1.98 0.66 3.96 1.32 6 2 C6.1875 4.375 6.1875 4.375 6 7 C5.01 7.66 4.02 8.32 3 9 C2.01 8.67 1.02 8.34 0 8 C0.66 6.35 1.32 4.7 2 3 C1.34 3 0.68 3 0 3 C0 2.01 0 1.02 0 0 Z " fill="#EC7E4B" transform="translate(86,179)"/>
<path d="M0 0 C2.5 0.125 2.5 0.125 3.5 1.125 C3.77314815 6.86111111 3.77314815 6.86111111 3.5 9.125 C2.84 9.785 2.18 10.445 1.5 11.125 C1.5 8.155 1.5 5.185 1.5 2.125 C0.18 2.125 -1.14 2.125 -2.5 2.125 C-2.83 3.445 -3.16 4.765 -3.5 6.125 C-3.542721 4.45888095 -3.54063832 2.79117115 -3.5 1.125 C-2.5 0.125 -2.5 0.125 0 0 Z " fill="#DAA588" transform="translate(154.5,143.875)"/>
<path d="M0 0 C2.34418323 2.87695215 3.62961455 5.57403636 5 9 C5.95824253 10.36365283 6.94721175 11.70794169 8 13 C6.35 12.67 4.7 12.34 3 12 C2.67 10.35 2.34 8.7 2 7 C1.34 7 0.68 7 0 7 C0 4.69 0 2.38 0 0 Z " fill="#FAEDD0" transform="translate(62,114)"/>
<path d="M0 0 C0.99 0.33 1.98 0.66 3 1 C0.57330637 6.70273003 0.57330637 6.70273003 -1.6875 7.875 C-5.13331039 8.06126002 -8.54886157 8.05751897 -12 8 C-11.34 7.01 -10.68 6.02 -10 5 C-7.6171875 4.70703125 -7.6171875 4.70703125 -4.875 4.8125 C-3.96492188 4.83957031 -3.05484375 4.86664063 -2.1171875 4.89453125 C-1.41851562 4.92933594 -0.71984375 4.96414062 0 5 C0 3.35 0 1.7 0 0 Z " fill="#F8F7DE" transform="translate(73,65)"/>
<path d="M0 0 C3.63 0 7.26 0 11 0 C11.33 1.65 11.66 3.3 12 5 C11.05125 5.309375 10.1025 5.61875 9.125 5.9375 C6.13919592 6.87394742 6.13919592 6.87394742 4 8 C4 7.01 4 6.02 4 5 C5.98 5 7.96 5 10 5 C9.67 3.68 9.34 2.36 9 1 C6.03 1 3.06 1 0 1 C0 0.67 0 0.34 0 0 Z " fill="#E1B091" transform="translate(82,170)"/>
<path d="M0 0 C0.99 0.66 1.98 1.32 3 2 C2.85930804 4.12534659 2.71229079 6.25027529 2.5625 8.375 C2.48128906 9.55835938 2.40007812 10.74171875 2.31640625 11.9609375 C2 15 2 15 1 17 C0 16 0 16 -0.0625 12.4375 C-0.041875 11.303125 -0.02125 10.16875 0 9 C-0.66 8.67 -1.32 8.34 -2 8 C-1.67 7.67 -1.34 7.34 -1 7 C-0.63239269 4.67182036 -0.29758419 2.3381615 0 0 Z " fill="#FCE7D1" transform="translate(63,145)"/>
<path d="M0 0 C0.66 0 1.32 0 2 0 C3.78305524 2.63892176 4.99059621 4.97178863 6 8 C4.02 8 2.04 8 0 8 C0 5.36 0 2.72 0 0 Z " fill="#FCEFE1" transform="translate(83,150)"/>
<path d="M0 0 C-0.99 0.495 -0.99 0.495 -2 1 C-2 2.65 -2 4.3 -2 6 C-2.99 5.67 -3.98 5.34 -5 5 C-5.6875 2.9375 -5.6875 2.9375 -6 1 C-8.64 0.67 -11.28 0.34 -14 0 C-14 -0.33 -14 -0.66 -14 -1 C-8.51053913 -2.12029814 -5.16569441 -1.79217969 0 0 Z " fill="#F8E3D5" transform="translate(99,170)"/>
<path d="M0 0 C0.33 0 0.66 0 1 0 C1.33 3.63 1.66 7.26 2 11 C2.99 11.33 3.98 11.66 5 12 C5 11.01 5 10.02 5 9 C5.99 9 6.98 9 8 9 C8 10.32 8 11.64 8 13 C5.66705225 13.04241723 3.33297433 13.04092937 1 13 C0 12 0 12 -0.09765625 9.27734375 C-0.08605469 8.17519531 -0.07445313 7.07304687 -0.0625 5.9375 C-0.05347656 4.83277344 -0.04445313 3.72804687 -0.03515625 2.58984375 C-0.02355469 1.73519531 -0.01195313 0.88054687 0 0 Z " fill="#DE845A" transform="translate(107,150)"/>
<path d="M0 0 C1.32 0 2.64 0 4 0 C4 1.98 4 3.96 4 6 C3.34 6 2.68 6 2 6 C2 6.66 2 7.32 2 8 C1.01 7.67 0.02 7.34 -1 7 C-0.67 4.69 -0.34 2.38 0 0 Z " fill="#EA7F49" transform="translate(94,154)"/>
<path d="M0 0 C0.33 1.32 0.66 2.64 1 4 C2.98 4 4.96 4 7 4 C7.33 4.99 7.66 5.98 8 7 C3.545 7.495 3.545 7.495 -1 8 C-0.67 5.36 -0.34 2.72 0 0 Z " fill="#F4D7BC" transform="translate(122,146)"/>
<path d="M0 0 C1.65 0 3.3 0 5 0 C5 1.65 5 3.3 5 5 C3.35 5.33 1.7 5.66 0 6 C0 4.02 0 2.04 0 0 Z " fill="#FBDEC8" transform="translate(51,146)"/>
<path d="M0 0 C2.77477095 0.12751705 3.73339361 0.2375452 6 1.9375 C6.495 2.68 6.495 2.68 7 3.4375 C5.80375 3.416875 4.6075 3.39625 3.375 3.375 C-0.18004869 3.36867429 -3.50555624 3.73861125 -7 4.4375 C-5.24239427 0.92228854 -3.79423083 0.11856971 0 0 Z " fill="#DF997E" transform="translate(122,169.5625)"/>
<path d="M0 0 C0.33 0 0.66 0 1 0 C1.33 2.31 1.66 4.62 2 7 C3.65 7 5.3 7 7 7 C7 7.66 7 8.32 7 9 C4.125 9.125 4.125 9.125 1 9 C-1 7 -1 7 -1.1875 3.9375 C-1 1 -1 1 0 0 Z " fill="#EE7D48" transform="translate(68,153)"/>
<path d="M0 0 C1.65 0 3.3 0 5 0 C4.01 0.66 3.02 1.32 2 2 C0.98247445 4.64047252 0.98247445 4.64047252 0.3125 7.625 C-0.06455078 9.12933594 -0.06455078 9.12933594 -0.44921875 10.6640625 C-0.63097656 11.43492187 -0.81273437 12.20578125 -1 13 C-1.33 13 -1.66 13 -2 13 C-2 10.03 -2 7.06 -2 4 C-1.34 4 -0.68 4 0 4 C0 2.68 0 1.36 0 0 Z " fill="#FBE6D3" transform="translate(150,143)"/>
<path d="M0 0 C4.95 0 9.9 0 15 0 C15 0.33 15 0.66 15 1 C13.75283203 1.09087891 13.75283203 1.09087891 12.48046875 1.18359375 C10.85044922 1.30927734 10.85044922 1.30927734 9.1875 1.4375 C8.10855469 1.51871094 7.02960938 1.59992188 5.91796875 1.68359375 C2.94010095 1.90212461 2.94010095 1.90212461 0 3 C0 2.01 0 1.02 0 0 Z M-3 3 C-2.01 3.33 -1.02 3.66 0 4 C-0.66 4 -1.32 4 -2 4 C-2 5.65 -2 7.3 -2 9 C-2.33 9 -2.66 9 -3 9 C-3 7.02 -3 5.04 -3 3 Z " fill="#DFA754" transform="translate(65,85)"/>
<path d="M0 0 C1.65 0.33 3.3 0.66 5 1 C5 2.98 5 4.96 5 7 C4.34 7 3.68 7 3 7 C2.34 6.01 1.68 5.02 1 4 C0.01 4.495 0.01 4.495 -1 5 C-0.67 3.35 -0.34 1.7 0 0 Z " fill="#D8AF65" transform="translate(112,55)"/>
<path d="M0 0 C6.93 0.495 6.93 0.495 14 1 C12 3 12 3 9.6875 3.23046875 C8.800625 3.21628906 7.91375 3.20210937 7 3.1875 C5.6696875 3.17783203 5.6696875 3.17783203 4.3125 3.16796875 C2 3 2 3 0 2 C0 1.34 0 0.68 0 0 Z " fill="#F9E7D6" transform="translate(75,189)"/>
<path d="M0 0 C0.99 0.33 1.98 0.66 3 1 C3.185625 1.9590625 3.185625 1.9590625 3.375 2.9375 C3.684375 3.9584375 3.684375 3.9584375 4 5 C6.42383077 6.16953416 6.42383077 6.16953416 9 7 C9.66 7.66 10.32 8.32 11 9 C4.25 8.25 4.25 8.25 2 6 C2 4.68 2 3.36 2 2 C1.34 2 0.68 2 0 2 C0 1.34 0 0.68 0 0 Z " fill="#DEA751" transform="translate(69,122)"/>
<path d="M0 0 C2.5 1.75 2.5 1.75 5 4 C5 5.32 5 6.64 5 8 C2.69 7.67 0.38 7.34 -2 7 C-1.01 6.67 -0.02 6.34 1 6 C0.67 4.02 0.34 2.04 0 0 Z " fill="#D8AF67" transform="translate(139,74)"/>
<path d="M0 0 C0.99 0 1.98 0 3 0 C3 1.32 3 2.64 3 4 C2.01 4.33 1.02 4.66 0 5 C-0.80212628 6.87387216 -0.80212628 6.87387216 -1.1875 9.0625 C-1.34605469 9.79597656 -1.50460938 10.52945313 -1.66796875 11.28515625 C-1.83232422 12.13400391 -1.83232422 12.13400391 -2 13 C-2.33 13 -2.66 13 -3 13 C-3.125 5.25 -3.125 5.25 -2 3 C-1.34 3 -0.68 3 0 3 C0 2.01 0 1.02 0 0 Z " fill="#DB8556" transform="translate(106,171)"/>
<path d="M0 0 C2.97 0 5.94 0 9 0 C9.38218767 1.65614657 9.71395102 3.32457024 10 5 C9 6 9 6 5.9375 6.0625 C4.968125 6.041875 3.99875 6.02125 3 6 C3 5.67 3 5.34 3 5 C4.65 5 6.3 5 8 5 C8 4.01 8 3.02 8 2 C5.36 1.67 2.72 1.34 0 1 C0 0.67 0 0.34 0 0 Z " fill="#DEAD8F" transform="translate(91,144)"/>
<path d="M0 0 C0.33 1.32 0.66 2.64 1 4 C0.47921875 3.68289062 -0.0415625 3.36578125 -0.578125 3.0390625 C-3.67408709 1.71079489 -6.39404121 1.57635753 -9.75 1.375 C-11.50570312 1.26285156 -11.50570312 1.26285156 -13.296875 1.1484375 C-14.18890625 1.09945312 -15.0809375 1.05046875 -16 1 C-16 0.67 -16 0.34 -16 0 C-10.47032059 -0.71033431 -5.50016964 -1.30267176 0 0 Z " fill="#F2D4C0" transform="translate(62,140)"/>
<path d="M0 0 C1.32 0 2.64 0 4 0 C6 3 6 3 5.875 6.0625 C5 9 5 9 2.9375 10.375 C2.298125 10.58125 1.65875 10.7875 1 11 C1.33 10.01 1.66 9.02 2 8 C2.66 8 3.32 8 4 8 C3.67 5.69 3.34 3.38 3 1 C2.01 0.67 1.02 0.34 0 0 Z " fill="#DCA284" transform="translate(88,178)"/>
<path d="M0 0 C1.98 0 3.96 0 6 0 C6 1.32 6 2.64 6 4 C4.02 4 2.04 4 0 4 C0 2.68 0 1.36 0 0 Z " fill="#CC9271" transform="translate(163,139)"/>
<path d="M0 0 C1.65 0 3.3 0 5 0 C5 1.65 5 3.3 5 5 C3.35 4.67 1.7 4.34 0 4 C0 2.68 0 1.36 0 0 Z " fill="#D1CA8E" transform="translate(73,72)"/>
<path d="M0 0 C1.62418745 -0.08090971 3.24951745 -0.13914995 4.875 -0.1875 C5.77992187 -0.22230469 6.68484375 -0.25710937 7.6171875 -0.29296875 C8.79667969 -0.14794922 8.79667969 -0.14794922 10 0 C12 3 12 3 11.625 5.1875 C11.41875 5.785625 11.2125 6.38375 11 7 C10.01 6.67 9.02 6.34 8 6 C8 5.34 8 4.68 8 4 C8.66 4 9.32 4 10 4 C9.67 3.34 9.34 2.68 9 2 C6.87423218 1.53348793 6.87423218 1.53348793 4.4375 1.375 C3.61121094 1.30023437 2.78492187 1.22546875 1.93359375 1.1484375 C1.29550781 1.09945313 0.65742187 1.05046875 0 1 C0 0.67 0 0.34 0 0 Z " fill="#FBF6E3" transform="translate(73,26)"/>
<path d="M0 0 C0.33 0 0.66 0 1 0 C1 3.96 1 7.92 1 12 C-0.32 11.01 -1.64 10.02 -3 9 C-2.67 7.68 -2.34 6.36 -2 5 C-1.67 5 -1.34 5 -1 5 C-0.67 3.35 -0.34 1.7 0 0 Z " fill="#F7E3D1" transform="translate(97,176)"/>
<path d="M0 0 C1.65 0 3.3 0 5 0 C5.33 0.99 5.66 1.98 6 3 C3.69 3.33 1.38 3.66 -1 4 C-1.33 4.99 -1.66 5.98 -2 7 C-2 5.68 -2 4.36 -2 3 C-1.34 3 -0.68 3 0 3 C0 2.01 0 1.02 0 0 Z " fill="#DF8351" transform="translate(50,153)"/>
<path d="M0 0 C1.43088528 2.86177057 0.59991697 4.93375773 0 8 C-1.98 8.66 -3.96 9.32 -6 10 C-4.02 6.7 -2.04 3.4 0 0 Z " fill="#E5BA7D" transform="translate(129,108)"/>
<path d="M0 0 C0.33 0 0.66 0 1 0 C0.9131252 1.95917659 0.80495488 3.91741871 0.6875 5.875 C0.62949219 6.96554688 0.57148438 8.05609375 0.51171875 9.1796875 C0.34285156 10.11039063 0.17398438 11.04109375 0 12 C-0.99 12.66 -1.98 13.32 -3 14 C-2.28547412 9.23649415 -1.20465156 4.65798604 0 0 Z " fill="#DFA24A" transform="translate(132,100)"/>
<path d="M0 0 C3.465 1.485 3.465 1.485 7 3 C7.33 2.01 7.66 1.02 8 0 C8 1.65 8 3.3 8 5 C5.36 4.67 2.72 4.34 0 4 C0 2.68 0 1.36 0 0 Z " fill="#F5EFD2" transform="translate(71,74)"/>
<path d="M0 0 C2.475 0.99 2.475 0.99 5 2 C5 2.99 5 3.98 5 5 C2.69 4.67 0.38 4.34 -2 4 C-1.01 3.67 -0.02 3.34 1 3 C0.67 2.01 0.34 1.02 0 0 Z " fill="#F4CDB0" transform="translate(88,155)"/>
<path d="M0 0 C2.3431213 0.25561323 4.67843403 0.59270772 7 1 C7.33 1.66 7.66 2.32 8 3 C7.67 3.66 7.34 4.32 7 5 C4.11424181 4.60196439 3.17810487 4.20990931 1.25 1.9375 C0.8375 1.298125 0.425 0.65875 0 0 Z " fill="#D79B75" transform="translate(101,113)"/>
<path d="M0 0 C3.63 0 7.26 0 11 0 C11 0.66 11 1.32 11 2 C11.66 2.33 12.32 2.66 13 3 C12.01 3 11.02 3 10 3 C10 2.34 10 1.68 10 1 C7.36 1 4.72 1 2 1 C2 1.66 2 2.32 2 3 C1.01 3 0.02 3 -1 3 C-0.67 2.01 -0.34 1.02 0 0 Z " fill="#D9A95E" transform="translate(75,21)"/>
<path d="M0 0 C0.99 1.485 0.99 1.485 2 3 C1.34 3 0.68 3 0 3 C0 2.01 0 1.02 0 0 Z M-8 3 C-5.36 3 -2.72 3 0 3 C-1.1875 4.5625 -1.1875 4.5625 -3 6 C-5.6875 5.6875 -5.6875 5.6875 -8 5 C-8 4.34 -8 3.68 -8 3 Z " fill="#FAEDDF" transform="translate(51,161)"/>
<path d="M0 0 C0.99 0.33 1.98 0.66 3 1 C3 3 3 5 3 7 C1.68 6.67 0.36 6.34 -1 6 C-0.67 4.02 -0.34 2.04 0 0 Z " fill="#E57F50" transform="translate(122,155)"/>
<path d="M0 0 C0.99 0 1.98 0 3 0 C3 1.98 3 3.96 3 6 C2.01 6.33 1.02 6.66 0 7 C0 4.69 0 2.38 0 0 Z " fill="#EF7D49" transform="translate(58,145)"/>
<path d="M0 0 C1.2065625 0.0309375 1.2065625 0.0309375 2.4375 0.0625 C2.4375 1.0525 2.4375 2.0425 2.4375 3.0625 C0.4575 3.3925 -1.5225 3.7225 -3.5625 4.0625 C-3.5625 0.08689024 -3.5625 0.08689024 0 0 Z " fill="#D69674" transform="translate(111.5625,141.9375)"/>
<path d="M0 0 C0.99 0.33 1.98 0.66 3 1 C3 3.64 3 6.28 3 9 C2.34 9 1.68 9 1 9 C0.67 6.03 0.34 3.06 0 0 Z " fill="#EE7C48" transform="translate(77,148)"/>
<path d="M0 0 C0.7425 0.61875 1.485 1.2375 2.25 1.875 C4.48801188 3.60437281 6.43739987 4.86106661 9 6 C6 7 6 7 3 6 C3 5.34 3 4.68 3 4 C2.01 3.67 1.02 3.34 0 3 C0 2.01 0 1.02 0 0 Z " fill="#F9E9C5" transform="translate(70,127)"/>
<path d="M0 0 C4.455 1.98 4.455 1.98 9 4 C4.70600835 5.07349791 3.80504787 4.79682816 0 3 C0 2.01 0 1.02 0 0 Z " fill="#DEB26A" transform="translate(91,118)"/>
<path d="M0 0 C1.65 0 3.3 0 5 0 C5 0.66 5 1.32 5 2 C2.23749964 3.38125018 0.05268901 3.19079306 -3 3 C-3.66 2.34 -4.32 1.68 -5 1 C-2.525 1.495 -2.525 1.495 0 2 C0 1.34 0 0.68 0 0 Z " fill="#F9FCF0" transform="translate(60,80)"/>
<path d="M0 0 C0.99 0 1.98 0 3 0 C3 1.98 3 3.96 3 6 C2.01 6 1.02 6 0 6 C0 4.02 0 2.04 0 0 Z " fill="#FDF1E2" transform="translate(72,152)"/>
<path d="M0 0 C0.66 0 1.32 0 2 0 C2.33 0.66 2.66 1.32 3 2 C4.64363134 2.72159424 6.31050386 3.39351421 8 4 C7.67 4.66 7.34 5.32 7 6 C4.69 5.34 2.38 4.68 0 4 C0 2.68 0 1.36 0 0 Z " fill="#D4916B" transform="translate(123,146)"/>
<path d="M0 0 C2.31 0 4.62 0 7 0 C7 0.99 7 1.98 7 3 C4.36 2.67 1.72 2.34 -1 2 C-0.67 1.34 -0.34 0.68 0 0 Z " fill="#FEF8EB" transform="translate(107,101)"/>
<path d="M0 0 C1.65 0 3.3 0 5 0 C5.33 0.99 5.66 1.98 6 3 C4.02 3 2.04 3 0 3 C0 2.01 0 1.02 0 0 Z " fill="#CABA54" transform="translate(62,74)"/>
<path d="M0 0 C2.97 0.33 5.94 0.66 9 1 C9 1.33 9 1.66 9 2 C7.329375 2.2165625 7.329375 2.2165625 5.625 2.4375 C2.17857953 2.78372035 2.17857953 2.78372035 0 4 C0 2.68 0 1.36 0 0 Z " fill="#FAE7C2" transform="translate(87,72)"/>
<path d="M0 0 C1.32 0.33 2.64 0.66 4 1 C3.34 1 2.68 1 2 1 C2 1.66 2 2.32 2 3 C1.34 3 0.68 3 0 3 C0 3.66 0 4.32 0 5 C-0.99 5 -1.98 5 -3 5 C-3 4.01 -3 3.02 -3 2 C-2.01 2 -1.02 2 0 2 C0 1.34 0 0.68 0 0 Z " fill="#DFA546" transform="translate(83,63)"/>
</svg>
